<?xml version="1.0" encoding="utf-8"?>
<!-- Generator: Adobe Illustrator 28.5.0, SVG Export Plug-In . SVG Version: 6.00 Build 0)  -->
<svg version="1.0" id="katman_1" xmlns="http://www.w3.org/2000/svg" xmlns:xlink="http://www.w3.org/1999/xlink" x="0px" y="0px"
	 viewBox="0 0 841.89 595.28" style="enable-background:new 0 0 841.89 595.28;" xml:space="preserve">
<style type="text/css">
	.st0{fill:#005239;}
	.st1{fill:#FFC733;}
	.st2{fill:#333333;}
</style>
<path class="st0" d="M167.09,243.84c-11-9.56-22.98-15.56-37.49-16.43c-16.23-0.97-31.68,4.63-43.46,15.76
	c-21.72,20.51-24.67,54.48-6.64,78.14c9.8,12.86,22.68,20.47,38.66,22.84c13.73,2.04,27.64-1.44,39.6-8.9
	c0.15-0.09,0.34-0.05,0.44,0.1c0.03,0.05,0.05,0.11,0.05,0.17v52.16l-11.41,0.01c-0.12,0-0.21-0.09-0.21-0.21l-0.01-34.41
	c0-0.21-0.1-0.28-0.29-0.21c-3.25,1.04-6.62,1.8-10.1,2.27c-21.72,2.94-43.22-3.65-58.9-19.01c-26.85-26.31-28.43-68.62-3.43-96.68
	c22.28-25,59.24-30.7,88.02-13.45c4.17,2.5,8.11,5.44,11.82,8.8c0.11,0.1,0.12,0.26,0.04,0.37L167.09,243.84z"/>
<path class="st1" d="M167.09,243.84l-6.42,8.32c-8.36-7.74-17.96-12.27-28.79-13.6c-34.54-4.21-60.32,29.64-49.99,62.22
	c7.09,22.34,29.64,36.76,52.84,32.05c8.6-1.74,16.34-5.59,23.22-11.56c0.21-0.18,0.32-0.42,0.32-0.7l0.01-22.79
	c0-0.26-0.13-0.39-0.39-0.39l-34.47-0.01V286.5l49.65,0.04c0.26,0,0.48,0.1,0.66,0.29l38.76,41.28c0.13,0.13,0.34,0.14,0.47,0.01
	c0,0,0.01-0.01,0.01-0.01l38.67-41.3c0.19-0.2,0.42-0.3,0.69-0.3l14.29,0.01c0.26,0,0.38,0.13,0.38,0.38l0.01,100.8l-11.75-0.02
	V300.9c0-0.57-0.19-0.65-0.58-0.23l-41.75,44.53c-0.19,0.2-0.37,0.2-0.56,0l-41.83-44.64c-0.25-0.26-0.37-0.21-0.37,0.15l-0.1,86.95
	l-11.8,0.02v-52.16c0-0.18-0.14-0.32-0.31-0.32c-0.06,0-0.12,0.02-0.17,0.05c-11.96,7.46-25.87,10.94-39.6,8.9
	c-15.98-2.37-28.86-9.98-38.66-22.84c-18.04-23.66-15.09-57.63,6.64-78.14c11.78-11.13,27.23-16.72,43.46-15.76
	C144.12,228.28,156.09,234.28,167.09,243.84z"/>
<path class="st0" d="M160.67,252.16l-6.51,8.36c-0.2,0.26-0.58,0.31-0.84,0.11c-0.01-0.01-0.03-0.02-0.04-0.03
	c-3.29-3-6.98-5.5-11.06-7.48c-11.38-5.54-25.15-4.89-35.33,2.19c-8.08,5.63-13.1,13.4-15.05,23.3c-3.65,18.6,7.03,38.61,26.29,43
	c4.91,1.12,9.75,1.25,14.53,0.39c5.15-0.92,9.88-2.96,14.2-6.11c0.23-0.17,0.34-0.39,0.34-0.66l-0.01-6.25
	c0-0.24-0.12-0.36-0.37-0.36h-23.41c-0.23,0,0-0.12,0-0.35v-10.89l34.47,0.01c0.26,0,0.39,0.13,0.39,0.39l-0.01,22.79
	c0,0.29-0.11,0.52-0.32,0.7c-6.88,5.97-14.62,9.82-23.22,11.56c-23.2,4.7-45.75-9.71-52.84-32.05
	c-10.33-32.58,15.45-66.43,49.99-62.22C142.71,239.88,152.31,244.41,160.67,252.16z"/>
<path class="st0" d="M267,387.69l-0.01-100.8c0-0.26-0.13-0.38-0.38-0.38l-14.29-0.01c-0.28,0-0.51,0.1-0.69,0.3l-38.67,41.3
	c-0.13,0.13-0.34,0.14-0.47,0.01c0,0-0.01-0.01-0.01-0.01l-38.76-41.28c-0.18-0.19-0.4-0.29-0.66-0.29l-49.65-0.04v-11.05
	c0-0.11-0.12-0.21,0-0.21l0,0h54.93c0.2,0,0.38,0.08,0.52,0.22l33.7,35.91c0.11,0.12,0.22,0.12,0.33,0l33.48-35.79
	c0.21-0.23,0.47-0.34,0.78-0.34h31.29c0.1,0,0.18,0.08,0.18,0.18v112.05c0,0.11-0.09,0.21-0.21,0.21H267z"/>
<path class="st2" d="M387.44,305.75c2.17-26.56,40.83-26.33,42.66,0.32c0.38,5.6-0.8,11.12-4.08,15.65
	c-5.07,7.02-13.82,9.78-22.1,7.99C392.44,327.25,386.51,317.16,387.44,305.75z M408.8,322.1c6.85-0.04,12.37-6.34,12.33-14.07
	c-0.04-7.74-5.63-13.98-12.48-13.94c-6.85,0.04-12.37,6.34-12.33,14.07c0,0,0,0,0,0C396.37,315.89,401.95,322.14,408.8,322.1z"/>
<path class="st2" d="M688.02,322.18c2.04,0.06,3.78-0.33,5.22-1.18c2.53-1.47,3.38-4.65,0.6-6.48c-1.19-0.78-2.45-1.32-3.77-1.64
	c-7.08-1.69-17.76-3.16-18.73-12.33c-0.77-7.37,4.2-12.7,11.19-14.08c7.42-1.47,15.34,0.12,21.12,5.18
	c0.24,0.21,0.27,0.44,0.07,0.69l-4.58,6.13c-0.19,0.26-0.41,0.28-0.66,0.07c-3.46-3.02-7.57-4.5-12.31-4.44
	c-2.95,0.04-6.99,2.22-5.08,5.66c0.56,1,1.6,1.72,3.12,2.14c3,0.84,6.04,1.63,9.1,2.37c6.11,1.47,11.5,4.98,11.55,12.07
	c0.07,12.3-12,15.09-21.76,13.63c-5.11-0.77-9.45-2.83-13-6.2c-0.19-0.18-0.22-0.47-0.07-0.68l4.53-6.37
	c0.2-0.28,0.42-0.29,0.66-0.06C678.77,320.19,683.03,322.02,688.02,322.18z"/>
<path class="st2" d="M717.42,326.71c-15.28-10.35-11.35-37.21,8.05-40.4c15.01-2.48,26.73,8.55,25.45,23.79
	c-0.86,10.3-7.45,18.19-17.87,19.89C727.87,330.84,721.84,329.7,717.42,326.71z M729.61,322.11c6.85-0.02,12.39-6.32,12.36-14.06
	c-0.03-7.74-5.6-14-12.46-13.97c0,0,0,0,0,0c-6.85,0.02-12.39,6.32-12.36,14.06C717.17,315.88,722.75,322.13,729.61,322.11
	C729.61,322.11,729.61,322.11,729.61,322.11z"/>
<path class="st2" d="M336.69,312.66H325.9c-0.3,0-0.46-0.15-0.46-0.46l-0.01-6.72c0-0.21,0.17-0.38,0.38-0.38l0,0l20.28,0.01
	c0.1,0,0.18,0.09,0.18,0.19v16.92c0,0.27-0.09,0.5-0.27,0.69c-6.82,7.51-17.77,9.81-26.99,5.99c-11.16-4.62-15.59-16.55-12.19-27.67
	c3.39-11.1,14.6-16.42,25.75-14.5c5.43,0.93,9.79,3.85,13.09,8.76c0.1,0.15,0.06,0.35-0.09,0.45c-0.01,0.01-0.02,0.01-0.03,0.02
	l-6.99,3.84c-0.25,0.14-0.45,0.09-0.62-0.13c-2.06-2.81-4.74-4.45-8.02-4.91c-12.03-1.71-18.35,12.06-12.66,21.47
	c4.02,6.64,12.27,7.84,18.75,3.86c0.36-0.23,0.69-0.5,0.97-0.83c0.17-0.19,0.25-0.42,0.25-0.67v-5.35
	C337.24,312.85,337.06,312.66,336.69,312.66z"/>
<path class="st2" d="M505.91,312.66h-10.88c-0.25,0-0.37-0.12-0.37-0.37v-6.82c0-0.25,0.12-0.37,0.37-0.37h20.09
	c0.25,0,0.37,0.12,0.37,0.37v16.79c0,0.29-0.1,0.54-0.3,0.75c-6.06,6.23-13.37,8.67-21.93,7.31c-12.45-1.98-19.76-13.09-18.01-25.4
	c1.52-10.68,9.59-17.69,20.25-18.51c8.29-0.64,14.74,2.33,19.34,8.94c0.2,0.28,0.15,0.5-0.15,0.66l-6.78,3.72
	c-0.29,0.16-0.53,0.11-0.73-0.14c-3.97-4.92-8.9-6.24-14.8-3.96c-7.1,2.75-9.7,11.94-6.82,18.6c3.72,8.61,13.1,10.44,20.54,5.21
	c0.25-0.17,0.37-0.4,0.37-0.7l-0.01-5.54C506.47,312.85,506.28,312.66,505.91,312.66z"/>
<path class="st2" d="M362.5,295.27l0.01,9.53c0,0.17,0.14,0.3,0.3,0.3l0,0h18.57c0.17,0,0.3,0.14,0.3,0.3l0,0l0.01,6.95
	c0,0.17-0.14,0.3-0.3,0.3l0,0h-18.57c-0.17,0-0.3,0.14-0.3,0.3l0,0v9.53c0,0.17,0.14,0.3,0.3,0.3l0,0h20.05c0.17,0,0.3,0.14,0.3,0.3
	l0,0v6.95c0,0.17-0.14,0.3-0.3,0.3l0,0h-29.09c-0.17,0-0.3-0.14-0.3-0.3l0,0l-0.01-42.35c0-0.17,0.14-0.3,0.3-0.3l0,0h29.09
	c0.17,0,0.3,0.14,0.3,0.3l0,0l0.01,6.95c0,0.17-0.14,0.3-0.3,0.3l0,0H362.8C362.63,294.97,362.5,295.1,362.5,295.27L362.5,295.27z"
	/>
<path class="st2" d="M461.19,313.96c-0.16,0.05-0.24,0.22-0.19,0.37c0.01,0.02,0.02,0.04,0.03,0.06l9.04,15.48
	c0.19,0.32,0.09,0.49-0.28,0.49H459.7c-0.26,0-0.44-0.11-0.57-0.33l-7.75-14.01c-0.14-0.26-0.41-0.41-0.71-0.41l-5.42,0.01
	c-0.24,0-0.36,0.12-0.36,0.37l0.01,13.99c0,0.21-0.17,0.38-0.37,0.38h-8.31c-0.25,0-0.37-0.13-0.37-0.38v-42.17
	c0-0.29,0.14-0.43,0.43-0.42c5.29,0.05,10.8,0.04,16.52-0.03c3.98-0.05,6.88,0.29,8.69,1.02c7.09,2.85,9.81,9.95,7.95,16.97
	C468.3,309.66,465.55,312.53,461.19,313.96z M444.9,295.27l-0.01,10.99c0,0.18,0.14,0.32,0.32,0.32l0,0l9.08,0.01
	c3.37,0,6.11-2.5,6.12-5.6v-0.38c0.01-3.1-2.72-5.63-6.1-5.63c0,0,0,0-0.01,0l-9.08-0.01C445.05,294.95,444.9,295.09,444.9,295.27
	L444.9,295.27z"/>
<path class="st2" d="M531.72,295.22v9.64c0,0.14,0.11,0.25,0.25,0.25l0,0h18.67c0.14,0,0.25,0.11,0.25,0.25c0,0,0,0,0,0v7.06
	c0,0.14-0.11,0.25-0.25,0.25l0,0h-18.67c-0.14,0-0.25,0.11-0.25,0.25c0,0,0,0,0,0v9.64c0,0.14,0.11,0.25,0.25,0.25l0,0h20.14
	c0.14,0,0.25,0.11,0.25,0.25c0,0,0,0,0,0v7.06c0,0.14-0.11,0.25-0.25,0.25l0,0h-29.18c-0.14,0-0.25-0.11-0.25-0.25c0,0,0,0,0,0
	v-42.45c0-0.14,0.11-0.25,0.25-0.25l0,0h29.18c0.14,0,0.25,0.11,0.25,0.25c0,0,0,0,0,0v7.06c0,0.14-0.11,0.25-0.25,0.25l0,0h-20.14
	C531.83,294.97,531.72,295.08,531.72,295.22C531.72,295.22,531.72,295.22,531.72,295.22z"/>
<path class="st2" d="M583.67,301.3c-0.33-0.86-0.5-0.83-0.5,0.1v28.59c0,0.25-0.13,0.38-0.38,0.38h-8.19
	c-0.31,0-0.46-0.15-0.46-0.45v-42.13c0-0.24,0.12-0.36,0.36-0.36l12.02-0.01c0.29,0,0.48,0.13,0.58,0.4l9.81,25.54
	c0.12,0.32,0.25,0.32,0.37,0l9.8-25.55c0.1-0.26,0.29-0.39,0.58-0.39h12.01c0.21,0,0.38,0.17,0.38,0.37c0,0,0,0,0,0l0.01,42.21
	c0,0.21-0.17,0.38-0.38,0.38l0,0h-8.21c-0.3,0-0.45-0.15-0.45-0.46l-0.01-28.63c0-0.85-0.15-0.87-0.46-0.08l-11.23,28.75
	c-0.11,0.28-0.31,0.42-0.62,0.42h-3.16c-0.29,0-0.56-0.18-0.67-0.46L583.67,301.3z"/>
<path class="st2" d="M654.26,322.99l-18.32-0.01c-0.12,0-0.22,0.07-0.27,0.18l-2.51,7c-0.04,0.11-0.15,0.19-0.27,0.18l-9.5-0.01
	c-0.15,0-0.28-0.13-0.28-0.28c0-0.03,0.01-0.07,0.02-0.1l16.19-42.38c0.04-0.11,0.14-0.18,0.26-0.18l11.05,0.01
	c0.11,0,0.22,0.07,0.26,0.18l16.17,42.39c0.06,0.14-0.01,0.31-0.16,0.36c-0.03,0.01-0.07,0.02-0.1,0.02h-9.5
	c-0.12,0-0.22-0.07-0.27-0.18l-2.51-7C654.48,323.06,654.38,322.99,654.26,322.99z M638.34,315.1c-0.04,0.12,0.02,0.25,0.14,0.29
	c0.03,0.01,0.05,0.01,0.08,0.01l13.04,0.03c0.13,0,0.23-0.09,0.24-0.22c0-0.03,0-0.06-0.01-0.09l-6.5-18.23
	c-0.04-0.12-0.17-0.18-0.29-0.14c-0.06,0.02-0.11,0.07-0.14,0.13L638.34,315.1z"/>
<path class="st2" d="M784.62,314.09v-26.31c0-0.25,0.13-0.37,0.38-0.37h8.11c0.37,0,0.55,0.18,0.55,0.55l0.01,41.84
	c0,0.37-0.19,0.55-0.56,0.55l-8.81-0.01c-0.29,0-0.52-0.12-0.69-0.36l-19.06-27.63c-0.26-0.37-0.38-0.33-0.38,0.12l0.01,27.51
	c0,0.2-0.17,0.37-0.38,0.37l0,0h-8.3c-0.25,0-0.37-0.13-0.37-0.38v-42.2c0-0.21,0.17-0.38,0.38-0.38l0,0l9.79-0.01
	c0.19,0,0.37,0.09,0.47,0.24l18.46,26.57C784.49,314.59,784.62,314.54,784.62,314.09z"/>
<path class="st0" d="M255.25,387.67l-11.45,0.01c-0.11,0-0.2-0.09-0.2-0.2l0,0l0.01-57.68c0-0.29-0.1-0.33-0.29-0.12l-27.81,29.52
	c-0.16,0.18-0.4,0.28-0.64,0.28h-4.29c-0.36,0-0.67-0.13-0.91-0.4l-27.64-29.35c-0.23-0.25-0.35-0.2-0.35,0.14l-0.01,57.41
	c0,0.24-0.12,0.35-0.35,0.35l-11.26,0.02l0.1-86.95c0-0.36,0.12-0.41,0.37-0.15l41.83,44.64c0.19,0.2,0.37,0.2,0.56,0l41.75-44.53
	c0.39-0.42,0.58-0.34,0.58,0.23V387.67z"/>
<path class="st2" d="M543.77,355.03c-0.63,2.88,2.86,4.29,5.09,4.78c7.96,1.75,19.32,3.57,19.05,14.36
	c-0.22,9.05-7.08,13.13-15.36,13.52c-7.27,0.33-14.22-1.47-19.41-6.55c-0.16-0.16-0.19-0.42-0.05-0.6l4.57-6.46
	c0.16-0.23,0.34-0.24,0.55-0.04c4.2,4.04,9.04,5.86,14.54,5.49c6.6-0.46,8.37-7.2,1.09-9c-3.21-0.8-6.42-1.65-9.62-2.54
	c-1.82-0.51-3.57-1.32-5.24-2.44c-6.02-4.02-6.12-12.96-1.04-17.75c2.48-2.34,5.5-3.72,9.08-4.15c7.82-0.94,14.39,0.87,19.73,5.42
	c0.21,0.17,0.24,0.48,0.07,0.7l-4.68,6.24c-0.11,0.16-0.33,0.19-0.48,0.08c-0.01-0.01-0.02-0.02-0.03-0.03
	c-3.03-2.71-6.6-4.2-10.72-4.47C548.03,351.39,544.45,351.88,543.77,355.03z"/>
<path class="st2" d="M329.52,379.59c4.95-0.83,7.34-4.93,7.35-9.79c0.03-8.32,0.03-16.47-0.01-24.47c0-0.23,0.18-0.41,0.41-0.41
	h8.49c0.37,0,0.55,0.18,0.55,0.55c-0.07,6.25-0.06,12.99,0.04,20.24c0.07,5.21-0.3,9.02-1.11,11.42
	c-3.19,9.48-13.24,11.94-22.79,10.55c-6.71-0.97-11.19-4.28-13.43-9.92c-0.96-2.41-1.39-6.47-1.31-12.17
	c0.1-6.78,0.09-13.51-0.01-20.19c0-0.24,0.19-0.45,0.43-0.45c0,0,0,0,0.01,0l8.6-0.01c0.28,0,0.41,0.14,0.41,0.41
	c0,8.3,0,16.38,0.01,24.23C317.19,377.14,322.25,380.82,329.52,379.59z"/>
<path class="st2" d="M382.96,371.68l-0.01-26.39c0-0.25,0.13-0.37,0.38-0.37h8.11c0.25,0,0.37,0.12,0.37,0.37v42.03
	c0,0.25-0.12,0.37-0.37,0.37l-9,0.01c-0.27,0-0.48-0.11-0.63-0.33l-18.82-27.29c-0.32-0.46-0.48-0.41-0.48,0.15v26.9
	c0,0.37-0.19,0.55-0.56,0.55l-8.1,0.01c-0.2,0-0.37-0.16-0.38-0.36c0,0,0,0,0-0.01v-42.04c0-0.2,0.17-0.37,0.37-0.37h9.59
	c0.31,0,0.56,0.13,0.74,0.38l18.43,26.49C382.83,372.16,382.96,372.12,382.96,371.68z"/>
<path class="st2" d="M399.27,344.91h8.48c0.15,0,0.28,0.13,0.28,0.28v42.22c0,0.15-0.13,0.28-0.28,0.28h-8.48
	c-0.15,0-0.28-0.13-0.28-0.28v-42.22C398.99,345.04,399.12,344.91,399.27,344.91z"/>
<path class="st2" d="M433.38,376.84l11.28-31.78c0.03-0.09,0.11-0.15,0.21-0.15h10.04c0.12,0,0.22,0.1,0.22,0.22
	c0,0.03-0.01,0.06-0.02,0.08l-16.16,42.34c-0.03,0.08-0.12,0.14-0.21,0.14H427.6c-0.09,0-0.17-0.06-0.21-0.14l-16.17-42.32
	c-0.04-0.11,0.01-0.24,0.12-0.29c0.03-0.01,0.05-0.02,0.08-0.02l10.03-0.01c0.09,0,0.18,0.06,0.21,0.15l11.3,31.77
	c0.04,0.11,0.17,0.17,0.29,0.13C433.31,376.95,433.36,376.9,433.38,376.84z"/>
<path class="st2" d="M467.03,370.3l0.01,9.61c0,0.14,0.11,0.25,0.25,0.25h19.95c0.14,0,0.25,0.11,0.25,0.25c0,0,0,0,0,0l0.01,6.96
	c0,0.14-0.11,0.25-0.25,0.25h0l-29,0.03c-0.14,0-0.25-0.11-0.25-0.25l-0.03-42.28c0-0.14,0.11-0.25,0.25-0.25l0,0l29-0.02
	c0.14,0,0.25,0.11,0.25,0.25l0.01,6.97c0,0.14-0.11,0.25-0.25,0.25l-19.96,0.03c-0.14,0-0.25,0.11-0.25,0.25c0,0,0,0,0,0l0.01,9.61
	c0,0.14,0.11,0.25,0.25,0.25l0,0l18.49-0.01c0.14,0,0.25,0.11,0.25,0.25c0,0,0,0,0,0v7.06c0,0.14-0.11,0.25-0.25,0.25l0,0
	l-18.48,0.02C467.14,370.05,467.03,370.16,467.03,370.3z"/>
<path class="st2" d="M519.99,371.94l8.89,15.24c0.2,0.34,0.1,0.51-0.29,0.51l-10.11,0.01c-0.21,0-0.37-0.09-0.46-0.27l-7.79-14.08
	c-0.14-0.27-0.36-0.4-0.66-0.4h-5.49c-0.25,0-0.37,0.12-0.37,0.36v14.01c0,0.25-0.12,0.37-0.37,0.37l-8.47,0.01
	c-0.11,0-0.19-0.09-0.19-0.19v-42.38c0-0.13,0.11-0.24,0.24-0.24c0,0,0.01,0,0.01,0c5.44,0.09,11,0.08,16.7-0.03
	c4.04-0.08,6.96,0.23,8.77,0.92c6.65,2.55,9.41,9.2,8.14,15.99c-0.89,4.8-3.66,7.98-8.31,9.53
	C519.89,371.41,519.81,371.63,519.99,371.94z M503.74,352.62l-0.07,10.94c0,0.19,0.15,0.34,0.34,0.34l9.12,0.07
	c3.4,0.03,6.18-2.51,6.21-5.67c0,0,0-0.01,0-0.01v-0.19c0.02-3.15-2.72-5.73-6.13-5.75l-9.12-0.07
	C503.9,352.28,503.75,352.43,503.74,352.62C503.74,352.61,503.74,352.62,503.74,352.62z"/>
<path class="st2" d="M572.92,344.91h8.48c0.15,0,0.28,0.13,0.28,0.28v42.22c0,0.15-0.13,0.28-0.28,0.28h-8.48
	c-0.15,0-0.28-0.13-0.28-0.28v-42.22C572.64,345.04,572.76,344.91,572.92,344.91z"/>
<path class="st2" d="M609.69,354.05v33.37c0,0.15-0.12,0.27-0.27,0.27h-8.49c-0.15,0-0.27-0.12-0.27-0.27v-33.37
	c0-0.15-0.12-0.27-0.27-0.27l0,0h-12.73c-0.15,0-0.27-0.12-0.27-0.27v-8.31c0-0.15,0.12-0.27,0.27-0.27h35.03
	c0.15,0,0.27,0.12,0.27,0.27v8.31c0,0.15-0.12,0.27-0.27,0.27h-12.73C609.82,353.78,609.69,353.9,609.69,354.05L609.69,354.05z"/>
<path class="st2" d="M646.6,361.46l9.95-16.42c0.05-0.08,0.14-0.13,0.23-0.13l9.92,0.01c0.15,0,0.26,0.12,0.26,0.27
	c0,0.05-0.01,0.09-0.04,0.13l-14.43,24.75c-0.02,0.04-0.04,0.09-0.04,0.13l-0.01,17.23c0,0.15-0.12,0.27-0.27,0.27l0,0h-9.97
	c-0.15,0-0.27-0.12-0.27-0.27l0,0V370.4c0-0.05-0.02-0.1-0.04-0.15l-16.19-24.92c-0.08-0.12-0.05-0.29,0.07-0.37
	c0.04-0.03,0.1-0.04,0.15-0.04l9.94,0.01c0.09,0,0.18,0.05,0.23,0.13l10.04,16.41c0.08,0.13,0.24,0.16,0.36,0.09
	C646.54,361.53,646.58,361.5,646.6,361.46z"/>
<path class="st2" d="M675.98,380.26c0,4.12-3.34,7.46-7.46,7.46c-4.12,0-7.46-3.34-7.46-7.46c0,0,0,0,0,0
	c0-4.12,3.34-7.46,7.46-7.46h0C672.64,372.8,675.98,376.14,675.98,380.26z M674.75,380.28c0-3.45-2.79-6.24-6.24-6.24
	c-3.45,0-6.24,2.79-6.24,6.24v0c0,3.45,2.79,6.24,6.24,6.24l0,0C671.96,386.52,674.75,383.72,674.75,380.28z"/>
<path class="st0" d="M122.5,377.83l-0.01,9.5c0,0.25-0.13,0.37-0.38,0.38l-0.69,0.02c-0.39,0.01-0.59-0.17-0.59-0.57v-9.62
	c0-0.1-0.08-0.18-0.18-0.18l-3.95,0.02c-0.15,0-0.28-0.13-0.28-0.28c0,0,0,0,0,0v-1.03c0-0.26,0.14-0.38,0.39-0.38
	c3.13,0.02,6.37,0.02,9.73,0.01c0.25,0,0.38,0.12,0.38,0.37c0,0,0,0.32,0.01,0.96c0,0.24-0.11,0.36-0.35,0.36l-3.61-0.01
	C122.65,377.37,122.5,377.52,122.5,377.83z"/>
<path class="st0" d="M138.48,379.2c0-0.11-0.09-0.19-0.2-0.18c-0.07,0-0.14,0.05-0.17,0.12c-0.96,2.59-2.04,5.24-3.23,7.93
	c-0.13,0.28-0.31,0.51-0.55,0.69c-0.16,0.11-0.38,0.08-0.49-0.07c-0.02-0.02-0.03-0.05-0.04-0.07l-3.54-8.44
	c-0.27-0.64-0.4-0.62-0.4,0.08l0.01,8.04c0,0.24-0.12,0.37-0.35,0.39l-0.7,0.06c-0.41,0.04-0.61-0.14-0.61-0.55v-11.03
	c0-0.31,0.15-0.47,0.46-0.46l1.45,0.02c0.31,0.01,0.52,0.16,0.64,0.44l3.27,7.84c0.04,0.11,0.17,0.17,0.29,0.13
	c0.06-0.02,0.1-0.07,0.13-0.13l3.32-7.96c0.11-0.27,0.31-0.4,0.6-0.38l1.48,0.08c0.19,0.01,0.34,0.17,0.34,0.36v11.04
	c0,0.37-0.19,0.57-0.56,0.58l-0.68,0.02c-0.21,0.01-0.39-0.16-0.4-0.37c0,0,0-0.01,0-0.01L138.48,379.2z"/>
<path class="st2" d="M666.82,381.62l0.04,2.57c0,0.26-0.13,0.39-0.39,0.38l-0.55-0.01c-0.25,0-0.38-0.13-0.38-0.38v-7.79
	c0-0.27,0.14-0.42,0.41-0.46c2.85-0.38,7.21-0.02,5.61,4.07c-0.1,0.24-0.26,0.44-0.47,0.58l-0.77,0.51
	c-0.23,0.15-0.29,0.46-0.14,0.68c0,0.01,0.01,0.01,0.01,0.02l1.52,2.18c0.25,0.36,0.15,0.56-0.28,0.59l-0.41,0.04
	c-0.31,0.02-0.56-0.09-0.74-0.33c-0.62-0.79-1.15-1.61-1.59-2.46c-0.32-0.6-0.91-0.72-1.52-0.62
	C666.96,381.24,666.82,381.41,666.82,381.62z M666.82,377.48l0.04,2.39c0,0.15,0.13,0.28,0.29,0.27c0,0,0,0,0,0l1.87-0.04
	c0.85-0.02,1.52-0.64,1.5-1.4v-0.21c-0.01-0.76-0.71-1.36-1.56-1.34c0,0,0,0,0,0l-1.87,0.04
	C666.93,377.19,666.81,377.32,666.82,377.48C666.82,377.48,666.82,377.48,666.82,377.48z"/>
</svg>
