<svg id="Layer_1" data-name="Layer 1" xmlns="http://www.w3.org/2000/svg" viewBox="0 0 1000 1000"><defs><style>.cls-1{fill:#ffcf35;}.cls-2{fill:#056836;}</style></defs><path class="cls-1" d="M760.21,264.32l52.57-95c-12.49,11.7-18.61,15.42-30.37,23.33-63.62,43.67-141.85,54-220.49,118.72-53.31,43.94-78,107.55-78,107.55s71.59-80.63,179.87-120.58c43.67-16.15,74.12-25.06,96.39-33.7"/><path class="cls-2" d="M732.15,315.44c-57,18.21-124.9,35.5-194.43,82.43-54.17,36.56-85.61,99-85.61,99s76.37-76.37,187.45-102.5l56.83-13.29,35.76-65.61M668.67,433.76c-27.25,2.46-84.28,7.58-151,44.67-43.87,24.4-78.43,57.83-78.43,57.83l-.14.2-.06-.07c-13,24.47-31,65.08-48.73,108.75L302.48,484.68H187.22L224,521.57V793.11l-36.82,36.82H313.31l-37.42-36.82V582.19l82.36,147.37L332.19,815l26.52-31s21.47-102.43,106.29-203V795.9l-36.82,34.83h146l-31.78-36.89v-287c76.78-60.82,126.43-73.19,126.1-73.19Z"/></svg>