<svg version="1.1" id="Layer_1" xmlns="http://www.w3.org/2000/svg" xmlns:xlink="http://www.w3.org/1999/xlink" x="0px" y="0px"
	 width="100%" viewBox="0 0 1212 638" enable-background="new 0 0 1212 638" xml:space="preserve">
<path fill="#FEFEFE" opacity="1.000000" stroke="none" 
	d="
M720.000000,639.000000 
	C480.000000,639.000000 240.500031,639.000000 1.000032,639.000000 
	C1.000021,426.333374 1.000021,213.666718 1.000011,1.000061 
	C404.999969,1.000041 808.999939,1.000041 1213.000000,1.000020 
	C1213.000000,213.666611 1213.000000,426.333221 1213.000000,638.999878 
	C1048.833374,639.000000 884.666687,639.000000 720.000000,639.000000 
M941.980042,406.666870 
	C943.971252,413.746155 947.834106,416.571533 954.528381,415.845001 
	C959.446716,415.311249 963.433716,410.926514 963.741577,405.712677 
	C964.097229,399.688995 960.745483,395.408173 954.561523,393.987976 
	C948.837158,392.673340 943.762451,396.668915 941.334595,404.375519 
	C941.482300,404.891510 941.629944,405.407532 941.980042,406.666870 
M188.919754,290.610962 
	C188.853333,293.772247 188.887466,296.939758 188.693375,300.093170 
	C188.481720,303.531830 189.854279,304.767639 193.357132,304.671753 
	C201.009018,304.462341 208.676239,304.478882 216.325546,304.742004 
	C218.288376,304.809540 221.696106,305.890350 221.869553,306.933197 
	C222.400894,310.127563 223.391556,313.878418 219.437256,316.295471 
	C211.740845,320.999939 203.446442,323.837189 194.466141,323.952881 
	C159.373672,324.405060 137.696808,292.001678 145.680679,259.917297 
	C154.348465,225.084473 191.284546,211.125931 221.878418,230.477997 
	C225.361969,232.681503 229.887589,237.084412 232.330292,236.174240 
	C235.887543,234.848770 237.992065,229.624481 241.285187,225.918686 
	C244.215500,221.696335 247.145828,217.473984 250.714355,213.009827 
	C252.520264,210.847076 254.397171,208.739136 256.117950,206.510635 
	C260.227020,201.189163 260.255188,201.092255 254.731705,196.769333 
	C228.787979,176.464630 199.810791,170.222168 167.786911,178.068283 
	C116.469460,190.641495 83.875229,245.877975 97.653160,296.984100 
	C111.716652,349.149445 161.245071,379.609985 214.151001,368.624146 
	C216.353592,368.166718 218.540558,367.634094 221.487579,366.965820 
	C221.487579,383.508270 221.487579,399.238831 221.487579,415.127045 
	C227.067825,415.127045 232.037003,415.127045 237.718216,415.497711 
	C243.470657,415.383148 249.223083,415.268616 255.900574,415.325714 
	C260.675201,415.325714 265.449829,415.325714 271.025818,415.325714 
	C271.025818,388.376221 271.025818,362.092590 271.025818,335.808990 
	C271.657623,335.454529 272.289398,335.100067 272.921204,334.745605 
	C273.690552,336.051605 274.252869,337.550262 275.261200,338.633911 
	C285.808044,349.968842 296.421082,361.242218 307.027435,372.521759 
	C311.719513,377.511688 316.372681,377.523285 320.991394,372.597046 
	C327.139313,366.039764 333.268463,359.464691 339.445099,352.934570 
	C344.965607,347.098206 350.539581,341.312347 356.089966,335.504211 
	C356.520752,335.680084 356.951569,335.855988 357.382385,336.031860 
	C357.382385,362.351593 357.382385,388.671326 357.382385,415.190216 
	C363.106171,415.190216 368.079041,415.190216 373.757355,415.554443 
	C379.468689,415.417725 385.179993,415.280975 391.828339,415.305664 
	C396.603455,415.305664 401.378571,415.305664 406.306763,415.305664 
	C406.306763,362.502289 406.306763,310.306580 406.306763,257.665741 
	C397.819519,257.665741 389.580750,258.485443 381.569244,257.485107 
	C367.441437,255.721100 356.269684,259.400482 348.455566,271.732513 
	C347.493439,273.250916 345.973907,274.414490 344.721588,275.750854 
	C334.713379,286.430664 324.707306,297.112488 314.415527,308.097992 
	C312.839935,306.618652 311.463348,305.457825 310.237640,304.155060 
	C296.659637,289.723938 283.184174,275.194611 269.442749,260.921173 
	C267.744781,259.157471 264.673218,257.839874 262.222351,257.813995 
	C239.733200,257.576416 217.240524,257.669800 194.748886,257.666840 
	C192.948257,257.666595 191.147629,257.666779 189.168396,257.666779 
	C189.168396,263.172363 189.168396,268.125793 188.632095,273.669373 
	C188.786896,279.039459 188.941681,284.409546 188.919754,290.610962 
M838.463745,306.302551 
	C841.792114,314.816986 844.981445,323.390900 848.575562,331.791656 
	C849.230103,333.321472 851.496033,334.954956 853.095337,335.037201 
	C854.379089,335.103210 856.379333,333.150482 857.024780,331.648102 
	C859.780090,325.234619 862.100098,318.635773 864.677612,312.143768 
	C866.687012,307.082825 868.842102,302.079742 870.932434,297.050934 
	C872.057922,308.627808 871.960327,319.784851 872.178040,330.935791 
	C872.206116,332.375977 873.684753,334.813568 874.805420,335.011414 
	C877.975647,335.571198 881.308960,335.207367 884.696045,335.207367 
	C884.696045,314.785278 884.696045,295.047913 884.696045,274.839447 
	C879.231506,274.839447 874.075684,274.615570 868.964844,274.996307 
	C867.681580,275.091888 865.996887,276.905792 865.427673,278.307983 
	C862.113159,286.472290 859.106445,294.760986 855.926147,302.980652 
	C855.021423,305.319092 853.883911,307.567444 852.489929,310.663971 
	C848.159546,299.426544 844.293152,289.159729 840.190735,278.988129 
	C839.543518,277.383423 837.922607,275.140961 836.591370,275.024261 
	C831.348694,274.564667 826.041870,274.835907 820.328918,274.835907 
	C820.328918,294.457672 820.281921,313.419952 820.464722,332.379974 
	C820.474121,333.350891 822.317322,334.793945 823.554016,335.144104 
	C825.251038,335.624634 827.201050,335.115265 829.013367,335.306763 
	C832.308533,335.654877 833.384460,334.315704 833.327881,331.044403 
	C833.166687,321.719360 833.263916,312.389404 833.312073,303.061615 
	C833.319641,301.597656 833.601624,300.135040 833.756775,298.671814 
	C834.188171,298.625946 834.619629,298.580078 835.051086,298.534180 
	C836.085815,300.881927 837.120544,303.229675 838.463745,306.302551 
M1115.265503,307.035309 
	C1115.049805,308.059967 1114.833984,309.084656 1114.468628,310.820190 
	C1113.158936,309.159149 1112.297974,308.172607 1111.552490,307.105438 
	C1104.786499,297.420319 1098.074951,287.696777 1091.247559,278.055298 
	C1090.346680,276.783081 1088.954102,275.107697 1087.669189,274.995728 
	C1083.296509,274.614624 1078.870117,274.849976 1074.120850,274.849976 
	C1074.120850,294.480804 1074.066284,313.284241 1074.264404,332.084991 
	C1074.275635,333.144318 1076.201660,334.627289 1077.528687,335.110352 
	C1079.005127,335.647858 1080.832397,335.124664 1082.478760,335.311920 
	C1086.325928,335.749512 1087.325562,333.961243 1087.238770,330.359955 
	C1087.026367,321.536835 1087.114502,312.705353 1087.169312,303.877777 
	C1087.179321,302.254883 1087.602173,300.634552 1087.834473,299.013031 
	C1090.049805,300.188782 1091.039795,301.482025 1091.964478,302.820557 
	C1097.826416,311.307220 1104.072510,319.563873 1109.382080,328.383911 
	C1112.770020,334.011810 1116.810303,335.975067 1123.172485,335.414886 
	C1126.967651,335.080688 1128.350830,334.292297 1128.298096,330.241791 
	C1128.077026,313.254852 1128.208496,296.263397 1128.180176,279.273651 
	C1128.177734,277.857208 1127.946411,276.441193 1127.800659,274.789307 
	C1125.145874,274.789307 1122.960449,275.018982 1120.841553,274.740997 
	C1116.558228,274.179016 1114.922485,275.550751 1115.119141,280.145264 
	C1115.489258,288.791199 1115.239868,297.463654 1115.265503,307.035309 
M524.265076,398.497284 
	C524.265076,392.028229 524.265076,385.559143 524.265076,379.090088 
	C524.779236,379.030945 525.293396,378.971832 525.807617,378.912689 
	C526.874939,380.344543 527.987061,381.745392 529.002197,383.213287 
	C534.777283,391.563721 540.500732,399.950012 546.297424,408.285339 
	C551.593506,415.900726 555.869873,417.277985 564.961792,414.556976 
	C564.961792,394.916260 564.961792,375.331116 564.961792,355.288544 
	C562.089355,355.288544 559.598877,355.449219 557.137634,355.249542 
	C553.746399,354.974426 552.317627,356.123566 552.463196,359.733124 
	C552.718201,366.055664 552.578979,372.394318 552.594727,378.726227 
	C552.604797,382.767303 552.596619,386.808441 552.596619,390.849518 
	C550.378723,389.806519 549.305969,388.622925 548.397827,387.324249 
	C542.771667,379.278534 536.657043,371.511627 531.749451,363.046387 
	C527.906860,356.418182 523.013611,354.484253 515.821838,355.113800 
	C512.050171,355.443939 511.057556,356.587433 511.087494,360.170654 
	C511.230896,377.332642 511.144012,394.496552 511.165497,411.659729 
	C511.166870,412.760651 511.392303,413.861298 511.508698,414.918365 
	C515.904785,414.918365 519.951965,414.918365 524.265137,414.918365 
	C524.265137,409.473389 524.265137,404.483795 524.265076,398.497284 
M685.402588,320.105377 
	C694.409546,337.105835 720.306702,341.700684 736.236755,326.612152 
	C737.359375,325.548889 738.549744,323.886902 738.594543,322.468170 
	C738.829163,315.042084 738.704102,307.604645 738.704102,300.028076 
	C728.440735,300.028076 718.767456,300.028076 709.133545,300.028076 
	C708.448853,310.326782 708.448853,310.326660 718.103394,310.295013 
	C718.769104,310.292816 719.510376,310.101685 720.086670,310.328430 
	C721.986633,311.075928 725.058289,311.608795 725.439697,312.890747 
	C726.296570,315.770538 726.340454,319.033875 722.757996,321.091064 
	C714.661682,325.740387 704.629944,323.938965 699.032532,316.536621 
	C693.071716,308.653656 694.089050,296.276031 701.244568,289.623108 
	C707.847168,283.484253 717.317139,283.698395 724.711121,289.986725 
	C725.806091,290.917999 727.814636,292.003296 728.812866,291.591766 
	C731.916565,290.312317 734.737549,288.346985 737.662964,286.650757 
	C730.839233,275.362457 717.896301,270.670135 704.622681,274.180695 
	C684.659607,279.460419 676.031128,299.432617 685.402588,320.105377 
M483.250671,322.244751 
	C482.943085,322.370453 482.645844,322.539734 482.326447,322.615601 
	C471.903381,325.091614 464.044586,321.868103 459.975433,313.456726 
	C455.940735,305.116577 458.182831,294.591156 464.964447,288.882050 
	C470.284210,284.403564 481.401184,282.742554 488.475739,290.700287 
	C489.124237,291.429749 490.977692,291.854065 491.858917,291.470886 
	C494.842651,290.173523 497.640747,288.449097 501.217072,286.502991 
	C498.783813,283.809845 497.140961,281.514954 495.048065,279.755280 
	C484.365265,270.773163 466.131195,271.030426 455.225494,280.171326 
	C441.680267,291.524628 440.493011,313.549591 452.744873,326.189056 
	C465.020813,338.853363 488.023438,338.850830 499.608826,326.148743 
	C500.368622,325.315735 501.340973,324.225433 501.359406,323.238831 
	C501.503815,315.498322 501.439423,307.753906 501.439423,300.038788 
	C491.174622,300.038788 481.639069,300.038788 472.149963,300.038788 
	C471.395599,310.303833 471.395599,310.303802 481.175812,310.278992 
	C481.675629,310.277740 482.175415,310.276825 482.675232,310.276917 
	C488.231110,310.277710 490.288757,312.890106 488.222809,317.989319 
	C487.575867,319.586090 485.453979,320.585297 483.250671,322.244751 
M670.736023,281.824951 
	C667.424500,279.693146 664.224731,275.964233 660.780823,275.723175 
	C649.574707,274.938721 638.279236,275.429535 626.540405,275.429535 
	C626.540405,294.506714 626.502014,313.467468 626.655701,332.426636 
	C626.663269,333.359558 628.274719,334.972260 629.265442,335.077118 
	C632.485901,335.417938 635.765015,335.204620 639.465637,335.204620 
	C639.465637,329.672546 639.247742,324.853241 639.571960,320.070709 
	C639.703369,318.132294 640.637695,315.000916 641.868225,314.634583 
	C644.753906,313.775513 648.025208,313.716492 649.875244,317.553589 
	C652.255798,322.490936 655.062012,327.233551 657.882996,331.941284 
	C658.665344,333.246765 660.074829,334.944214 661.326599,335.060303 
	C665.534058,335.450562 669.800232,335.208679 675.069275,335.208679 
	C673.587036,332.342346 672.696777,330.444275 671.651855,328.635468 
	C669.155396,324.313904 666.419373,320.119019 664.164551,315.677765 
	C663.606995,314.579620 663.966003,311.994263 664.835938,311.348663 
	C675.509644,303.427460 677.722473,293.743164 670.736023,281.824951 
M711.236938,415.360077 
	C714.676147,415.360077 718.115417,415.360077 722.070618,415.360077 
	C722.070618,408.245728 722.070618,401.824615 722.070618,395.599731 
	C728.068848,393.596161 731.650574,395.248688 733.923706,400.751221 
	C735.626953,404.874176 738.085938,408.703369 740.414246,412.538422 
	C741.109863,413.684204 742.449585,415.120178 743.580444,415.199890 
	C747.969238,415.509186 752.392700,415.325836 757.610229,415.325836 
	C753.053223,407.329315 749.050476,400.305450 744.933044,393.080322 
	C745.923645,392.511017 746.461365,392.188477 747.011169,391.887909 
	C754.944885,387.550507 758.631104,379.774506 756.903320,371.012970 
	C755.048157,361.605286 749.672607,356.257202 740.034851,355.606537 
	C731.254944,355.013824 722.407043,355.504547 713.598328,355.225800 
	C709.865295,355.107697 708.797302,356.322449 708.841064,360.068359 
	C709.037415,376.879456 708.878662,393.694427 708.980347,410.507233 
	C708.989990,412.103058 709.920593,413.693298 711.236938,415.360077 
M614.120728,321.620453 
	C614.932007,319.985443 615.807556,318.378784 616.544128,316.710754 
	C621.438538,305.626495 619.096680,290.541260 611.207275,282.138641 
	C602.836548,273.223419 589.715881,270.159485 578.215759,274.434509 
	C565.332825,279.223602 558.385315,289.992371 558.595947,304.845490 
	C558.791626,318.640869 566.759888,329.519714 579.742004,333.715332 
	C592.172729,337.732849 605.205750,333.318481 614.120728,321.620453 
M1034.140015,272.864868 
	C1014.889465,274.942993 1004.045776,294.723206 1009.360107,313.661499 
	C1014.041260,330.343323 1031.971558,339.116974 1049.317749,333.057007 
	C1062.795288,328.348511 1071.141602,312.717773 1068.156982,297.775146 
	C1064.802734,280.982880 1052.527466,271.731964 1034.140015,272.864868 
M447.079559,368.513489 
	C447.082825,376.010529 446.920563,383.512146 447.126495,391.003632 
	C447.472168,403.578735 452.844055,411.648376 463.494659,414.446533 
	C468.383087,415.730804 473.755463,416.046143 478.814667,415.638306 
	C492.281677,414.552612 499.811462,407.890320 501.054443,394.461426 
	C502.170593,382.402771 501.529877,370.175507 501.447662,358.024048 
	C501.441467,357.111267 499.837433,355.745880 498.730377,355.416168 
	C497.197845,354.959778 495.408936,355.461548 493.770599,355.244690 
	C489.300995,354.653107 487.580719,356.127075 487.771545,360.965179 
	C488.158661,370.779297 488.014893,380.621887 487.839386,390.448242 
	C487.701965,398.142822 484.096222,402.575745 477.581024,403.739075 
	C467.501190,405.538971 461.079865,400.386963 460.808746,389.976013 
	C460.557312,380.320831 460.624023,370.657562 460.520081,360.998169 
	C460.501007,359.225800 460.335907,357.455048 460.238434,355.687256 
	C455.628601,355.687256 451.553894,355.687256 447.079559,355.687256 
	C447.079559,359.904877 447.079559,363.712402 447.079559,368.513489 
M944.515198,317.701630 
	C940.525635,307.122406 936.450195,296.574524 932.569946,285.955353 
	C928.410034,274.571014 928.490112,274.671722 916.262085,274.673859 
	C912.875122,274.674438 911.257812,275.803925 910.096313,278.950256 
	C905.315979,291.899597 900.268066,304.749969 895.354248,317.650330 
	C893.255554,323.159912 891.244263,328.702759 888.917664,334.973053 
	C891.288391,335.108795 892.890442,335.103943 894.465576,335.307922 
	C900.357849,336.071106 904.870789,335.070099 906.088318,328.006500 
	C906.312134,326.708130 909.082336,325.055176 910.766602,324.946045 
	C916.574646,324.569580 922.432739,325.016510 928.250977,324.728790 
	C931.931152,324.546875 933.633118,325.888062 934.658630,329.381714 
	C935.285034,331.515594 936.878357,334.566711 938.551208,334.947235 
	C942.258667,335.790588 946.290100,335.209869 951.155090,335.209869 
	C948.768005,328.895966 946.787903,323.658752 944.515198,317.701630 
M986.455688,273.207153 
	C981.336609,273.365356 976.126221,272.974091 971.118958,273.805573 
	C962.811768,275.185059 957.184448,281.845245 956.482605,289.960999 
	C955.815674,297.673126 960.044189,303.786896 968.598755,306.784790 
	C973.134827,308.374420 977.908325,309.273438 982.521118,310.661774 
	C986.141418,311.751343 990.791016,312.630035 990.133240,317.608124 
	C989.487976,322.492065 984.851746,322.937897 980.804504,323.357147 
	C979.992493,323.441284 979.088867,323.404022 978.331482,323.132599 
	C972.668579,321.102966 967.031799,319.000427 960.772095,316.694214 
	C960.118591,317.491425 958.816162,319.193146 957.395874,320.790131 
	C954.190369,324.394287 954.935486,326.906982 959.041260,329.336731 
	C969.225769,335.363739 979.887634,337.010559 991.141724,333.272614 
	C999.665039,330.441681 1003.901001,324.280182 1003.826294,315.635315 
	C1003.757568,307.678131 999.439331,302.100250 990.886414,299.339874 
	C986.459900,297.911285 981.906738,296.878235 977.422302,295.625275 
	C973.905701,294.642731 969.389771,294.005493 970.462708,288.982819 
	C971.482117,284.210480 976.048828,284.555603 979.885864,284.482147 
	C980.704956,284.466461 981.579041,284.593292 982.343201,284.879913 
	C986.777283,286.543121 991.186096,288.273743 996.118652,290.180725 
	C998.083191,287.491547 1000.285828,284.476410 1003.406311,280.204803 
	C997.455444,277.683929 992.360840,275.525818 986.455688,273.207153 
M809.857544,362.960449 
	C808.851013,361.463226 808.169128,359.486481 806.783936,358.548309 
	C799.094360,353.340607 790.437439,352.007233 781.465698,353.614197 
	C770.950867,355.497498 764.972778,362.005402 764.677917,371.091248 
	C764.396484,379.760040 768.957581,384.925507 779.773071,388.100342 
	C784.394592,389.456909 789.214294,390.324921 793.600952,392.212097 
	C795.610413,393.076569 798.103943,395.951050 797.987122,397.759583 
	C797.865112,399.649475 795.169434,402.291046 793.073975,402.960022 
	C787.283752,404.808685 781.545593,403.564758 776.301880,400.503357 
	C774.068787,399.199646 771.982727,397.644165 769.581726,396.037018 
	C768.132751,397.941223 766.876526,399.469147 765.754272,401.089783 
	C762.347900,406.009003 762.525024,406.619049 767.583252,409.953766 
	C776.327820,415.718872 786.016357,416.508392 795.908020,414.759979 
	C803.165466,413.477234 808.934082,409.603912 811.138855,402.024872 
	C814.238953,391.368011 809.423096,382.896332 798.186523,379.344879 
	C792.980591,377.699463 787.536438,376.759186 782.428894,374.878326 
	C780.679504,374.234070 778.259583,371.355835 778.572693,370.106323 
	C779.054626,368.182892 781.378479,366.022034 783.382507,365.360626 
	C785.746521,364.580383 788.763428,364.747742 791.209106,365.474335 
	C795.434570,366.729675 799.437744,368.733337 804.055359,370.638062 
	C805.704224,368.477600 807.601868,365.991241 809.857544,362.960449 
M766.473999,310.308258 
	C773.563049,310.308258 780.652161,310.308258 787.820374,310.308258 
	C787.820374,306.290009 787.820374,303.059357 787.820374,299.920349 
	C787.122009,299.756134 786.801025,299.616760 786.479065,299.614532 
	C781.147522,299.577148 775.815430,299.594086 770.484436,299.524994 
	C760.161926,299.391235 761.482300,301.230530 761.250366,290.180023 
	C761.176575,286.665833 762.573242,285.443115 765.960205,285.516663 
	C772.788940,285.664978 779.623840,285.516327 786.453613,285.635101 
	C789.141113,285.681824 790.544128,284.914032 790.292725,281.946106 
	C790.103943,279.717163 790.255432,277.459442 790.255432,275.221619 
	C775.834045,275.221619 762.289795,275.221619 748.374939,275.221619 
	C748.374939,294.456573 748.311462,313.268768 748.541931,332.077393 
	C748.554932,333.140686 750.961670,335.053467 752.288269,335.083588 
	C763.446655,335.337555 774.617920,335.051453 785.774658,335.340607 
	C790.969421,335.475281 790.077332,332.239410 790.323914,329.100433 
	C790.610291,325.455719 789.446838,324.057343 785.590698,324.188385 
	C777.643188,324.458405 769.680115,324.269623 761.253418,324.269623 
	C761.253418,320.520905 761.363159,317.386963 761.222473,314.264282 
	C761.082092,311.149139 762.563599,310.039154 766.473999,310.308258 
M535.496399,274.816467 
	C527.549438,274.816467 519.602478,274.816467 511.951843,274.816467 
	C511.539093,275.778595 511.296356,276.081879 511.294342,276.386749 
	C511.173279,294.862610 511.085876,313.338684 510.955017,331.814453 
	C510.933411,334.866455 512.783997,335.279541 515.226929,335.271545 
	C526.547607,335.234436 537.868713,335.292603 549.188721,335.197144 
	C550.351990,335.187378 552.058044,334.723846 552.576050,333.889618 
	C555.288757,329.520691 552.285583,324.264130 547.253479,324.258179 
	C542.092529,324.252075 536.931580,324.256622 531.770630,324.256531 
	C529.372925,324.256470 526.975159,324.256500 524.286011,324.256500 
	C524.286011,320.878571 524.507751,318.367737 524.237244,315.911072 
	C523.760132,311.578247 525.304626,309.981995 529.799255,310.210999 
	C536.722839,310.563751 543.677734,310.303894 550.707397,310.303894 
	C550.707397,306.388336 550.707397,303.168060 550.707397,299.534485 
	C544.701233,299.534485 539.063721,299.534119 533.426147,299.534576 
	C523.636963,299.535339 523.776855,299.538940 524.015869,289.704315 
	C524.099365,286.267487 525.578308,285.489777 528.602478,285.544525 
	C535.592529,285.671082 542.587708,285.507080 549.578003,285.627808 
	C554.542542,285.713531 552.834778,282.091156 553.055420,279.620453 
	C553.282898,277.073395 553.497009,274.523560 549.475647,274.759155 
	C545.161926,275.011871 540.821960,274.816620 535.496399,274.816467 
M679.499512,355.083405 
	C672.394897,355.083405 665.290283,355.083405 658.138550,355.083405 
	C658.138550,375.717224 658.138550,395.415253 658.138550,415.001495 
	C672.050232,415.001495 685.482117,415.001495 699.097412,415.001495 
	C699.097412,411.540192 699.097412,408.455688 699.097412,404.798035 
	C689.743896,404.798035 680.650330,404.798035 671.183838,404.798035 
	C671.183838,399.868195 671.183838,395.514374 671.183838,390.557739 
	C679.976318,390.557739 688.381836,390.557739 696.796875,390.557739 
	C696.796875,386.705475 696.796875,383.465179 696.796875,379.598816 
	C688.061096,379.598816 679.676514,379.598816 671.226807,379.598816 
	C671.226807,374.756989 671.226807,370.556000 671.226807,365.787476 
	C680.737000,365.787476 689.811157,365.787476 699.107910,365.787476 
	C699.225220,363.762451 699.204590,362.275116 699.415161,360.821289 
	C700.094910,356.128387 698.079346,354.602814 693.491333,354.999664 
	C689.190430,355.371674 684.832031,355.080566 679.499512,355.083405 
M632.435852,373.711700 
	C629.492981,382.001923 626.550171,390.292145 623.607300,398.582367 
	C617.780945,385.520020 613.357971,372.822266 608.722229,360.202728 
	C608.055969,358.389099 606.551392,355.795135 605.111633,355.562500 
	C601.142273,354.921143 597.001465,355.340790 592.252197,355.340790 
	C593.036011,357.753937 593.471863,359.316711 594.045410,360.827179 
	C599.590454,375.431549 605.121460,390.041443 610.732483,404.620483 
	C614.932617,415.533447 614.983032,415.386383 626.679443,415.458099 
	C630.002075,415.478424 631.713440,414.532959 632.891724,411.319061 
	C637.752197,398.061615 642.889648,384.905853 647.910278,371.707001 
	C649.884583,366.516998 651.819519,361.312012 654.077576,355.301544 
	C649.880981,355.301544 646.581360,355.482666 643.311218,355.250214 
	C640.093018,355.021484 638.503174,356.253021 637.584595,359.361664 
	C636.220703,363.977509 634.372192,368.450195 632.435852,373.711700 
M930.336975,408.288879 
	C928.761414,396.334717 931.753662,385.623535 939.019592,376.036560 
	C940.119324,374.585449 940.965576,372.936859 941.878662,371.350647 
	C944.741577,366.377228 947.580322,361.389832 950.499084,356.284393 
	C940.047791,353.352814 936.250366,354.732208 931.454102,362.733032 
	C929.572144,365.872406 927.665405,368.998260 925.700989,372.086426 
	C924.528198,373.929993 923.221741,375.688477 921.542603,378.109192 
	C917.829041,372.200684 914.598328,367.192291 911.502014,362.102112 
	C907.172913,354.985199 901.630859,353.177307 892.954041,356.526642 
	C899.515320,366.639404 906.194458,376.565460 912.419189,386.768738 
	C914.122009,389.560120 915.055115,393.139404 915.298218,396.434052 
	C915.747803,402.526367 915.426758,408.675537 915.426758,415.018188 
	C920.606140,415.018188 925.310608,415.018188 930.336487,415.018188 
	C930.336487,412.840912 930.336487,411.029938 930.336975,408.288879 
M870.593506,373.568054 
	C870.593506,371.936981 870.593506,370.305908 870.593506,367.918732 
	C876.971375,367.918732 882.856323,367.918732 889.235718,367.918732 
	C889.235718,365.384796 889.236816,363.590271 889.235474,361.795776 
	C889.230652,355.274780 889.230347,355.267334 882.783020,355.266357 
	C869.973022,355.264404 857.163025,355.258026 844.353149,355.290771 
	C842.613220,355.295227 840.873901,355.514465 839.253296,355.626038 
	C839.253296,359.971497 839.253296,363.699219 839.253296,367.860657 
	C844.110779,367.860657 848.589539,368.042206 853.045654,367.802704 
	C856.551025,367.614258 857.679688,368.911591 857.619568,372.379211 
	C857.443604,382.524292 857.558533,392.674438 857.559265,402.822601 
	C857.559570,406.915070 857.559326,411.007507 857.559326,415.124756 
	C862.187927,415.124756 866.109497,415.124756 870.592834,415.124756 
	C870.592834,401.410034 870.592834,387.984955 870.593506,373.568054 
M575.667419,355.902557 
	C575.420166,356.666779 574.958130,357.430664 574.957031,358.195251 
	C574.929626,376.692413 574.947510,395.189667 574.988464,413.686829 
	C574.989441,414.126770 575.347473,414.565918 575.518250,414.957977 
	C579.683533,414.957977 583.729736,414.957977 588.109436,414.957977 
	C588.109436,398.539246 588.092834,382.562073 588.114868,366.584930 
	C588.131104,354.821899 588.153625,354.821930 575.667419,355.902557 
M818.295105,371.503113 
	C818.295105,385.940369 818.295105,400.377625 818.295105,415.040710 
	C822.893433,415.040710 826.939148,415.040710 831.387573,415.040710 
	C831.387573,395.885132 831.433533,377.104553 831.262512,358.325897 
	C831.253174,357.300934 829.547668,355.565826 828.437439,355.390533 
	C818.983521,353.896973 818.269836,354.582977 818.278564,364.012939 
	C818.280518,366.177155 818.287170,368.341400 818.295105,371.503113 
M212.379105,415.074402 
	C212.572403,410.476746 212.878021,405.879028 212.875824,401.281464 
	C212.875305,400.203644 211.833328,399.126373 211.270493,398.048828 
	C210.195084,398.875000 208.789764,399.493774 208.112885,400.570496 
	C206.695892,402.824402 205.662704,405.319580 204.076447,408.511383 
	C202.535904,405.226837 202.034485,402.418854 200.360977,400.915833 
	C195.341583,396.407593 188.889633,398.100311 182.937012,397.923798 
	C181.637756,397.885315 180.309097,398.839020 178.993973,399.335754 
	C179.145370,399.807251 179.296768,400.278748 179.448181,400.750244 
	C181.167404,401.033661 182.886642,401.317078 185.054138,401.674377 
	C185.054138,403.948151 184.815842,406.106995 185.115952,408.188232 
	C185.471634,410.654938 186.291275,413.054718 186.909866,415.483521 
	C187.384338,413.061951 188.199081,410.650146 188.268661,408.216980 
	C188.467438,401.267517 188.348297,401.264099 195.290894,401.183350 
	C195.290894,405.142548 195.190277,409.106628 195.372696,413.057648 
	C195.410843,413.884003 196.492950,414.662170 197.094009,415.462524 
	C197.592987,414.732941 198.277725,414.065491 198.547440,413.259186 
	C198.952789,412.047363 199.067490,410.738281 199.523163,408.313873 
	C201.433243,411.611053 202.615753,413.652313 204.160095,416.318146 
	C205.922638,413.591980 207.182297,411.643585 208.341171,409.851105 
	C209.581482,411.896027 210.630829,413.626099 212.379105,415.074402 
z"/>
<path fill="#0C573C" opacity="1.000000" stroke="none" 
	d="
M237.006180,415.127045 
	C232.037003,415.127045 227.067825,415.127045 221.487579,415.127045 
	C221.487579,399.238831 221.487579,383.508270 221.487579,366.965820 
	C218.540558,367.634094 216.353592,368.166718 214.151001,368.624146 
	C161.245071,379.609985 111.716652,349.149445 97.653160,296.984100 
	C83.875229,245.877975 116.469460,190.641495 167.786911,178.068283 
	C199.810791,170.222168 228.787979,176.464630 254.731705,196.769333 
	C260.255188,201.092255 260.227020,201.189163 256.117950,206.510635 
	C254.397171,208.739136 252.520264,210.847076 250.204956,212.840012 
	C231.190811,196.288788 209.727509,188.160019 184.950760,190.497589 
	C178.399261,191.115692 172.044662,193.820816 165.325806,195.589142 
	C164.698090,195.707214 164.344238,195.803757 163.748230,195.724792 
	C161.105545,196.508026 158.502533,197.143036 156.346268,198.492111 
	C151.713318,201.390732 147.310638,204.657394 142.860001,207.849564 
	C142.906311,207.925735 142.775253,207.804855 142.439331,207.856400 
	C133.967590,214.077591 126.823830,221.090561 122.776405,230.748505 
	C122.822044,230.800125 122.691132,230.757111 122.378227,230.872086 
	C114.365776,242.525085 111.023483,255.612961 110.516090,269.106201 
	C109.359009,299.876434 122.312180,324.165802 147.202957,341.798645 
	C153.343521,346.148743 161.122345,348.186218 168.447540,351.429626 
	C169.184998,351.617920 169.622955,351.663391 170.274384,352.011078 
	C174.367065,352.970062 178.246307,353.626831 182.485840,354.408325 
	C183.604202,354.551758 184.362289,354.570496 185.382034,354.897278 
	C190.078278,355.049774 194.512833,354.894165 199.306000,354.772400 
	C201.089188,354.625519 202.513763,354.444855 204.250061,354.451111 
	C215.332565,351.371094 226.103348,348.104126 237.006180,344.797119 
	C237.006180,367.912750 237.006180,391.519897 237.006180,415.127045 
z"/>
<path fill="#0E573C" opacity="1.000000" stroke="none" 
	d="
M189.168396,273.079224 
	C189.168396,268.125793 189.168396,263.172363 189.168396,257.666779 
	C191.147629,257.666779 192.948257,257.666595 194.748886,257.666840 
	C217.240524,257.669800 239.733200,257.576416 262.222351,257.813995 
	C264.673218,257.839874 267.744781,259.157471 269.442749,260.921173 
	C283.184174,275.194611 296.659637,289.723938 310.237640,304.155060 
	C311.463348,305.457825 312.839935,306.618652 314.415527,308.097992 
	C324.707306,297.112488 334.713379,286.430664 344.721588,275.750854 
	C345.973907,274.414490 347.493439,273.250916 348.455566,271.732513 
	C356.269684,259.400482 367.441437,255.721100 381.569244,257.485107 
	C389.580750,258.485443 397.819519,257.665741 406.306763,257.665741 
	C406.306763,310.306580 406.306763,362.502289 406.306763,415.305664 
	C401.378571,415.305664 396.603455,415.305664 391.326111,414.749512 
	C390.802338,410.366608 390.762024,406.539825 390.762054,402.713074 
	C390.762390,361.447784 390.772339,320.182526 390.767731,278.917236 
	C390.767395,275.746155 391.369812,271.924591 385.495667,273.754852 
	C380.357086,273.767090 375.681519,273.811737 370.781067,273.663727 
	C364.589813,279.529297 358.623444,285.587585 352.685974,291.712860 
	C352.714905,291.779846 352.596100,291.695129 352.313538,291.768066 
	C351.596161,292.452545 351.161346,293.064087 350.752014,293.732849 
	C350.777496,293.790100 350.668732,293.727844 350.352173,293.815643 
	C346.542450,297.808807 343.049316,301.714172 339.373016,305.750916 
	C338.964233,306.089142 338.793365,306.334198 338.362488,306.720917 
	C336.781067,308.254395 335.514435,309.684418 334.002777,311.256836 
	C333.444946,311.862396 333.132141,312.325531 332.515625,312.854370 
	C331.755341,313.555328 331.298737,314.190552 330.912109,314.900391 
	C330.982086,314.975037 330.824463,314.844604 330.518494,314.895721 
	C329.760834,315.591461 329.309113,316.236084 328.650269,317.017487 
	C328.443207,317.154266 328.137482,317.545319 327.819275,317.562561 
	C323.374786,322.178619 319.248535,326.777435 314.722717,331.379242 
	C313.802124,331.276764 313.281128,331.171326 312.770813,330.740021 
	C311.827026,329.651154 310.872467,328.888184 309.942108,328.079865 
	C309.966309,328.034515 309.874939,328.081665 309.849304,327.746429 
	C306.623566,324.208160 303.423462,321.005096 300.132446,317.877808 
	C300.041473,317.953522 300.199677,317.777435 300.141357,317.467651 
	C299.167053,316.348267 298.251099,315.538605 297.293091,314.737793 
	C297.251068,314.746613 297.274048,314.663879 297.199158,314.340057 
	C289.135620,305.336731 281.200073,296.607391 273.130127,288.004150 
	C270.224976,284.906982 266.996674,282.112946 263.918701,279.128296 
	C263.921539,279.076019 263.816986,279.080231 263.823181,278.749603 
	C262.871094,277.635437 261.912781,276.851898 260.964752,276.050476 
	C260.975006,276.032593 260.930969,276.039215 260.889374,275.664124 
	C258.597626,274.605408 256.352814,273.348236 254.096512,273.327179 
	C232.454926,273.125366 210.811371,273.132202 189.168396,273.079224 
z"/>
<path fill="#0D573B" opacity="1.000000" stroke="none" 
	d="
M373.051941,415.190216 
	C368.079041,415.190216 363.106171,415.190216 357.382385,415.190216 
	C357.382385,388.671326 357.382385,362.351593 357.382385,336.031860 
	C356.951569,335.855988 356.520752,335.680084 356.089966,335.504211 
	C350.539581,341.312347 344.965607,347.098206 339.445099,352.934570 
	C333.268463,359.464691 327.139313,366.039764 320.991394,372.597046 
	C316.372681,377.523285 311.719513,377.511688 307.027435,372.521759 
	C296.421082,361.242218 285.808044,349.968842 275.261200,338.633911 
	C274.252869,337.550262 273.690552,336.051605 272.921204,334.745605 
	C272.289398,335.100067 271.657623,335.454529 271.025818,335.808990 
	C271.025818,362.092590 271.025818,388.376221 271.025818,415.325714 
	C265.449829,415.325714 260.675201,415.325714 255.318604,414.891479 
	C254.601471,414.251984 254.466278,414.046783 254.429230,413.393494 
	C254.499252,374.616516 254.471161,336.287537 254.610977,297.612488 
	C255.725159,296.668671 256.671417,296.070892 257.677795,295.631165 
	C257.737915,295.789246 257.972107,296.033234 258.006042,296.370148 
	C260.636658,299.203369 263.233307,301.699646 265.982422,304.454956 
	C266.990875,305.551971 267.846893,306.390015 268.770630,307.479004 
	C269.119049,307.911774 269.399719,308.093628 269.727173,308.277832 
	C269.773987,308.280182 269.714874,308.352905 269.788330,308.677856 
	C275.262787,314.636658 280.663757,320.270508 286.036682,325.943726 
	C286.008575,325.983154 286.094208,325.938019 286.106781,326.279602 
	C289.341003,329.808228 292.562622,332.995209 295.860992,336.124817 
	C295.937714,336.067444 295.814331,336.214050 295.864838,336.524231 
	C296.815826,337.654144 297.716309,338.473907 298.650848,339.303772 
	C298.684906,339.313873 298.697601,339.383789 298.779785,339.707733 
	C301.528687,342.729675 304.195435,345.427643 306.925781,348.066895 
	C306.989349,348.008118 306.875519,348.138489 306.950256,348.464325 
	C309.298645,351.248871 311.572327,353.707581 314.302399,356.659851 
	C318.732483,351.590210 322.579559,347.187714 326.623505,342.595215 
	C326.986176,342.081635 327.152008,341.758057 327.606293,341.347168 
	C328.376709,340.659058 328.858704,340.058258 329.360687,339.415283 
	C329.380707,339.373077 329.462006,339.327087 329.753418,339.229919 
	C330.781494,338.185150 331.518127,337.237549 332.190002,336.214050 
	C332.125275,336.138153 332.292694,336.246704 332.599915,336.167786 
	C333.673279,335.129730 334.439423,334.170624 335.102356,333.118469 
	C334.999207,333.025452 335.215668,333.198639 335.540710,333.119812 
	C344.343018,323.816284 352.820282,314.591583 361.300842,305.333496 
	C361.304108,305.300110 361.370270,305.289032 361.680878,305.195679 
	C363.719666,303.126923 365.447845,301.151520 367.177002,299.166382 
	C367.177917,299.156616 367.196381,299.166199 367.525513,299.071533 
	C369.291504,297.701752 370.728333,296.426636 372.673309,294.700500 
	C372.915009,296.196625 373.192108,297.109833 373.191406,298.022858 
	C373.160370,337.078644 373.104645,376.134430 373.051941,415.190216 
z"/>
<path fill="#0E583B" opacity="1.000000" stroke="none" 
	d="
M240.715988,226.062500 
	C237.992065,229.624481 235.887543,234.848770 232.330292,236.174240 
	C229.887589,237.084412 225.361969,232.681503 221.878418,230.477997 
	C191.284546,211.125931 154.348465,225.084473 145.680679,259.917297 
	C137.696808,292.001678 159.373672,324.405060 194.466141,323.952881 
	C203.446442,323.837189 211.740845,320.999939 219.437256,316.295471 
	C223.391556,313.878418 222.400894,310.127563 221.869553,306.933197 
	C221.696106,305.890350 218.288376,304.809540 216.325546,304.742004 
	C208.676239,304.478882 201.009018,304.462341 193.357132,304.671753 
	C189.854279,304.767639 188.481720,303.531830 188.693375,300.093170 
	C188.887466,296.939758 188.853333,293.772247 189.399887,290.115234 
	C204.785828,289.435669 219.691681,289.195557 234.597305,289.209564 
	C235.480164,289.210388 237.062088,291.215485 237.123154,292.352142 
	C237.407623,297.648224 236.757782,303.029480 237.395264,308.264191 
	C238.629471,318.399139 236.069748,326.142059 225.942337,330.171356 
	C225.402588,330.386078 225.067154,331.114288 224.361313,331.669464 
	C223.759583,331.923981 223.433136,332.112488 222.738983,332.267639 
	C221.754044,332.471313 221.124588,332.680878 220.521362,332.949402 
	C203.750244,340.414734 186.689133,342.191467 169.555481,334.577057 
	C162.831009,331.588623 156.620682,327.443207 150.088409,323.911743 
	C150.000610,323.998779 150.176804,323.823944 150.120865,323.494202 
	C148.110199,321.379608 146.155457,319.594727 144.105896,317.905121 
	C144.011063,318.000366 144.192154,317.802429 144.122940,317.467590 
	C140.887650,312.099548 137.140121,307.330139 134.706009,301.964844 
	C131.811890,295.585632 130.046371,288.694366 127.828743,281.605560 
	C127.816528,276.105804 127.767403,271.025452 128.009659,265.694336 
	C130.446396,257.616821 132.591721,249.790085 134.885101,241.775421 
	C135.033173,241.587524 135.215393,241.145111 135.528778,241.046387 
	C153.938675,209.286194 186.395096,199.992798 216.384750,210.443649 
	C220.276840,211.799973 224.018143,213.589035 227.851471,215.100723 
	C227.873642,215.023819 227.862747,215.183334 228.018066,215.467804 
	C229.473831,216.424240 230.774246,217.096191 232.297806,217.933319 
	C232.866653,218.220047 233.212372,218.341583 233.680420,218.774536 
	C236.107162,221.411469 238.411575,223.736984 240.715988,226.062500 
z"/>
<path fill="#3E3E3E" opacity="1.000000" stroke="none" 
	d="
M838.309509,305.939972 
	C837.120544,303.229675 836.085815,300.881927 835.051086,298.534180 
	C834.619629,298.580078 834.188171,298.625946 833.756775,298.671814 
	C833.601624,300.135040 833.319641,301.597656 833.312073,303.061615 
	C833.263916,312.389404 833.166687,321.719360 833.327881,331.044403 
	C833.384460,334.315704 832.308533,335.654877 829.013367,335.306763 
	C827.201050,335.115265 825.251038,335.624634 823.554016,335.144104 
	C822.317322,334.793945 820.474121,333.350891 820.464722,332.379974 
	C820.281921,313.419952 820.328918,294.457672 820.328918,274.835907 
	C826.041870,274.835907 831.348694,274.564667 836.591370,275.024261 
	C837.922607,275.140961 839.543518,277.383423 840.190735,278.988129 
	C844.293152,289.159729 848.159546,299.426544 852.489929,310.663971 
	C853.883911,307.567444 855.021423,305.319092 855.926147,302.980652 
	C859.106445,294.760986 862.113159,286.472290 865.427673,278.307983 
	C865.996887,276.905792 867.681580,275.091888 868.964844,274.996307 
	C874.075684,274.615570 879.231506,274.839447 884.696045,274.839447 
	C884.696045,295.047913 884.696045,314.785278 884.696045,335.207367 
	C881.308960,335.207367 877.975647,335.571198 874.805420,335.011414 
	C873.684753,334.813568 872.206116,332.375977 872.178040,330.935791 
	C871.960327,319.784851 872.057922,308.627808 870.932434,297.050934 
	C868.842102,302.079742 866.687012,307.082825 864.677612,312.143768 
	C862.100098,318.635773 859.780090,325.234619 857.024780,331.648102 
	C856.379333,333.150482 854.379089,335.103210 853.095337,335.037201 
	C851.496033,334.954956 849.230103,333.321472 848.575562,331.791656 
	C844.981445,323.390900 841.792114,314.816986 838.309509,305.939972 
z"/>
<path fill="#3D3D3D" opacity="1.000000" stroke="none" 
	d="
M1115.256714,306.580200 
	C1115.239868,297.463654 1115.489258,288.791199 1115.119141,280.145264 
	C1114.922485,275.550751 1116.558228,274.179016 1120.841553,274.740997 
	C1122.960449,275.018982 1125.145874,274.789307 1127.800659,274.789307 
	C1127.946411,276.441193 1128.177734,277.857208 1128.180176,279.273651 
	C1128.208496,296.263397 1128.077026,313.254852 1128.298096,330.241791 
	C1128.350830,334.292297 1126.967651,335.080688 1123.172485,335.414886 
	C1116.810303,335.975067 1112.770020,334.011810 1109.382080,328.383911 
	C1104.072510,319.563873 1097.826416,311.307220 1091.964478,302.820557 
	C1091.039795,301.482025 1090.049805,300.188782 1087.834473,299.013031 
	C1087.602173,300.634552 1087.179321,302.254883 1087.169312,303.877777 
	C1087.114502,312.705353 1087.026367,321.536835 1087.238770,330.359955 
	C1087.325562,333.961243 1086.325928,335.749512 1082.478760,335.311920 
	C1080.832397,335.124664 1079.005127,335.647858 1077.528687,335.110352 
	C1076.201660,334.627289 1074.275635,333.144318 1074.264404,332.084991 
	C1074.066284,313.284241 1074.120850,294.480804 1074.120850,274.849976 
	C1078.870117,274.849976 1083.296509,274.614624 1087.669189,274.995728 
	C1088.954102,275.107697 1090.346680,276.783081 1091.247559,278.055298 
	C1098.074951,287.696777 1104.786499,297.420319 1111.552490,307.105438 
	C1112.297974,308.172607 1113.158936,309.159149 1114.468628,310.820190 
	C1114.833984,309.084656 1115.049805,308.059967 1115.256714,306.580200 
z"/>
<path fill="#3C3C3C" opacity="1.000000" stroke="none" 
	d="
M524.265137,398.995758 
	C524.265137,404.483795 524.265137,409.473389 524.265137,414.918365 
	C519.951965,414.918365 515.904785,414.918365 511.508698,414.918365 
	C511.392303,413.861298 511.166870,412.760651 511.165497,411.659729 
	C511.144012,394.496552 511.230896,377.332642 511.087494,360.170654 
	C511.057556,356.587433 512.050171,355.443939 515.821838,355.113800 
	C523.013611,354.484253 527.906860,356.418182 531.749451,363.046387 
	C536.657043,371.511627 542.771667,379.278534 548.397827,387.324249 
	C549.305969,388.622925 550.378723,389.806519 552.596619,390.849518 
	C552.596619,386.808441 552.604797,382.767303 552.594727,378.726227 
	C552.578979,372.394318 552.718201,366.055664 552.463196,359.733124 
	C552.317627,356.123566 553.746399,354.974426 557.137634,355.249542 
	C559.598877,355.449219 562.089355,355.288544 564.961792,355.288544 
	C564.961792,375.331116 564.961792,394.916260 564.961792,414.556976 
	C555.869873,417.277985 551.593506,415.900726 546.297424,408.285339 
	C540.500732,399.950012 534.777283,391.563721 529.002197,383.213287 
	C527.987061,381.745392 526.874939,380.344543 525.807617,378.912689 
	C525.293396,378.971832 524.779236,379.030945 524.265076,379.090088 
	C524.265076,385.559143 524.265076,392.028229 524.265137,398.995758 
z"/>
<path fill="#3E3E3E" opacity="1.000000" stroke="none" 
	d="
M685.233398,319.778931 
	C676.031128,299.432617 684.659607,279.460419 704.622681,274.180695 
	C717.896301,270.670135 730.839233,275.362457 737.662964,286.650757 
	C734.737549,288.346985 731.916565,290.312317 728.812866,291.591766 
	C727.814636,292.003296 725.806091,290.917999 724.711121,289.986725 
	C717.317139,283.698395 707.847168,283.484253 701.244568,289.623108 
	C694.089050,296.276031 693.071716,308.653656 699.032532,316.536621 
	C704.629944,323.938965 714.661682,325.740387 722.757996,321.091064 
	C726.340454,319.033875 726.296570,315.770538 725.439697,312.890747 
	C725.058289,311.608795 721.986633,311.075928 720.086670,310.328430 
	C719.510376,310.101685 718.769104,310.292816 718.103394,310.295013 
	C708.448853,310.326660 708.448853,310.326782 709.133545,300.028076 
	C718.767456,300.028076 728.440735,300.028076 738.704102,300.028076 
	C738.704102,307.604645 738.829163,315.042084 738.594543,322.468170 
	C738.549744,323.886902 737.359375,325.548889 736.236755,326.612152 
	C720.306702,341.700684 694.409546,337.105835 685.233398,319.778931 
z"/>
<path fill="#3D3D3D" opacity="1.000000" stroke="none" 
	d="
M483.628967,322.051392 
	C485.453979,320.585297 487.575867,319.586090 488.222809,317.989319 
	C490.288757,312.890106 488.231110,310.277710 482.675232,310.276917 
	C482.175415,310.276825 481.675629,310.277740 481.175812,310.278992 
	C471.395599,310.303802 471.395599,310.303833 472.149963,300.038788 
	C481.639069,300.038788 491.174622,300.038788 501.439423,300.038788 
	C501.439423,307.753906 501.503815,315.498322 501.359406,323.238831 
	C501.340973,324.225433 500.368622,325.315735 499.608826,326.148743 
	C488.023438,338.850830 465.020813,338.853363 452.744873,326.189056 
	C440.493011,313.549591 441.680267,291.524628 455.225494,280.171326 
	C466.131195,271.030426 484.365265,270.773163 495.048065,279.755280 
	C497.140961,281.514954 498.783813,283.809845 501.217072,286.502991 
	C497.640747,288.449097 494.842651,290.173523 491.858917,291.470886 
	C490.977692,291.854065 489.124237,291.429749 488.475739,290.700287 
	C481.401184,282.742554 470.284210,284.403564 464.964447,288.882050 
	C458.182831,294.591156 455.940735,305.116577 459.975433,313.456726 
	C464.044586,321.868103 471.903381,325.091614 482.326447,322.615601 
	C482.645844,322.539734 482.943085,322.370453 483.628967,322.051392 
z"/>
<path fill="#3B3B3B" opacity="1.000000" stroke="none" 
	d="
M670.949951,282.119934 
	C677.722473,293.743164 675.509644,303.427460 664.835938,311.348663 
	C663.966003,311.994263 663.606995,314.579620 664.164551,315.677765 
	C666.419373,320.119019 669.155396,324.313904 671.651855,328.635468 
	C672.696777,330.444275 673.587036,332.342346 675.069275,335.208679 
	C669.800232,335.208679 665.534058,335.450562 661.326599,335.060303 
	C660.074829,334.944214 658.665344,333.246765 657.882996,331.941284 
	C655.062012,327.233551 652.255798,322.490936 649.875244,317.553589 
	C648.025208,313.716492 644.753906,313.775513 641.868225,314.634583 
	C640.637695,315.000916 639.703369,318.132294 639.571960,320.070709 
	C639.247742,324.853241 639.465637,329.672546 639.465637,335.204620 
	C635.765015,335.204620 632.485901,335.417938 629.265442,335.077118 
	C628.274719,334.972260 626.663269,333.359558 626.655701,332.426636 
	C626.502014,313.467468 626.540405,294.506714 626.540405,275.429535 
	C638.279236,275.429535 649.574707,274.938721 660.780823,275.723175 
	C664.224731,275.964233 667.424500,279.693146 670.949951,282.119934 
M658.717529,299.232117 
	C662.600647,293.619324 661.746460,287.912506 655.933594,286.440826 
	C650.976562,285.185760 645.444763,285.390076 640.368408,286.203827 
	C639.509216,286.341583 639.613586,292.821808 639.381470,296.378784 
	C639.286987,297.826538 639.482788,299.293213 639.612488,302.263550 
	C646.016479,301.390106 652.064209,300.565277 658.717529,299.232117 
z"/>
<path fill="#3D3D3D" opacity="1.000000" stroke="none" 
	d="
M710.830261,415.323120 
	C709.920593,413.693298 708.989990,412.103058 708.980347,410.507233 
	C708.878662,393.694427 709.037415,376.879456 708.841064,360.068359 
	C708.797302,356.322449 709.865295,355.107697 713.598328,355.225800 
	C722.407043,355.504547 731.254944,355.013824 740.034851,355.606537 
	C749.672607,356.257202 755.048157,361.605286 756.903320,371.012970 
	C758.631104,379.774506 754.944885,387.550507 747.011169,391.887909 
	C746.461365,392.188477 745.923645,392.511017 744.933044,393.080322 
	C749.050476,400.305450 753.053223,407.329315 757.610229,415.325836 
	C752.392700,415.325836 747.969238,415.509186 743.580444,415.199890 
	C742.449585,415.120178 741.109863,413.684204 740.414246,412.538422 
	C738.085938,408.703369 735.626953,404.874176 733.923706,400.751221 
	C731.650574,395.248688 728.068848,393.596161 722.070618,395.599731 
	C722.070618,401.824615 722.070618,408.245728 722.070618,415.360077 
	C718.115417,415.360077 714.676147,415.360077 710.830261,415.323120 
M730.430603,381.990021 
	C731.922668,381.983459 733.416565,382.021576 734.906555,381.962219 
	C739.911926,381.762848 743.412231,378.624756 743.561401,374.245453 
	C743.713684,369.777161 740.440247,366.347473 735.424866,366.045502 
	C731.956238,365.836639 728.452271,365.798218 724.994446,366.069794 
	C723.914124,366.154694 722.101685,367.442719 722.045227,368.276306 
	C721.748108,372.660614 721.906128,377.075775 721.906128,381.988464 
	C724.918335,381.988464 727.203003,381.988464 730.430603,381.990021 
z"/>
<path fill="#3D3D3D" opacity="1.000000" stroke="none" 
	d="
M613.914734,321.915619 
	C605.205750,333.318481 592.172729,337.732849 579.742004,333.715332 
	C566.759888,329.519714 558.791626,318.640869 558.595947,304.845490 
	C558.385315,289.992371 565.332825,279.223602 578.215759,274.434509 
	C589.715881,270.159485 602.836548,273.223419 611.207275,282.138641 
	C619.096680,290.541260 621.438538,305.626495 616.544128,316.710754 
	C615.807556,318.378784 614.932007,319.985443 613.914734,321.915619 
M572.055420,299.159821 
	C571.882141,300.808228 571.555420,302.457184 571.560913,304.104980 
	C571.591919,313.434906 578.108887,321.777222 586.205627,322.962646 
	C595.444519,324.315277 603.912659,317.800659 605.794434,307.892731 
	C607.769165,297.495544 601.786926,287.260712 592.305542,284.814911 
	C583.663452,282.585663 575.696106,287.977081 572.055420,299.159821 
z"/>
<path fill="#3D3D3D" opacity="1.000000" stroke="none" 
	d="
M1034.570801,272.826660 
	C1052.527466,271.731964 1064.802734,280.982880 1068.156982,297.775146 
	C1071.141602,312.717773 1062.795288,328.348511 1049.317749,333.057007 
	C1031.971558,339.116974 1014.041260,330.343323 1009.360107,313.661499 
	C1004.045776,294.723206 1014.889465,274.942993 1034.570801,272.826660 
M1054.956909,298.731812 
	C1051.762939,288.711761 1044.228638,282.999512 1036.138428,284.464294 
	C1026.847534,286.146454 1020.414734,294.871948 1020.988953,305.013153 
	C1021.528748,314.546539 1028.691040,322.619324 1037.086060,323.156677 
	C1048.807861,323.906952 1057.017822,313.167145 1054.956909,298.731812 
z"/>
<path fill="#3F3F3F" opacity="1.000000" stroke="none" 
	d="
M447.079559,368.016724 
	C447.079559,363.712402 447.079559,359.904877 447.079559,355.687256 
	C451.553894,355.687256 455.628601,355.687256 460.238434,355.687256 
	C460.335907,357.455048 460.501007,359.225800 460.520081,360.998169 
	C460.624023,370.657562 460.557312,380.320831 460.808746,389.976013 
	C461.079865,400.386963 467.501190,405.538971 477.581024,403.739075 
	C484.096222,402.575745 487.701965,398.142822 487.839386,390.448242 
	C488.014893,380.621887 488.158661,370.779297 487.771545,360.965179 
	C487.580719,356.127075 489.300995,354.653107 493.770599,355.244690 
	C495.408936,355.461548 497.197845,354.959778 498.730377,355.416168 
	C499.837433,355.745880 501.441467,357.111267 501.447662,358.024048 
	C501.529877,370.175507 502.170593,382.402771 501.054443,394.461426 
	C499.811462,407.890320 492.281677,414.552612 478.814667,415.638306 
	C473.755463,416.046143 468.383087,415.730804 463.494659,414.446533 
	C452.844055,411.648376 447.472168,403.578735 447.126495,391.003632 
	C446.920563,383.512146 447.082825,376.010529 447.079559,368.016724 
z"/>
<path fill="#3D3D3D" opacity="1.000000" stroke="none" 
	d="
M944.661499,318.061584 
	C946.787903,323.658752 948.768005,328.895966 951.155090,335.209869 
	C946.290100,335.209869 942.258667,335.790588 938.551208,334.947235 
	C936.878357,334.566711 935.285034,331.515594 934.658630,329.381714 
	C933.633118,325.888062 931.931152,324.546875 928.250977,324.728790 
	C922.432739,325.016510 916.574646,324.569580 910.766602,324.946045 
	C909.082336,325.055176 906.312134,326.708130 906.088318,328.006500 
	C904.870789,335.070099 900.357849,336.071106 894.465576,335.307922 
	C892.890442,335.103943 891.288391,335.108795 888.917664,334.973053 
	C891.244263,328.702759 893.255554,323.159912 895.354248,317.650330 
	C900.268066,304.749969 905.315979,291.899597 910.096313,278.950256 
	C911.257812,275.803925 912.875122,274.674438 916.262085,274.673859 
	C928.490112,274.671722 928.410034,274.571014 932.569946,285.955353 
	C936.450195,296.574524 940.525635,307.122406 944.661499,318.061584 
M919.341858,290.102509 
	C916.440735,297.788391 913.539612,305.474304 910.415039,313.752228 
	C917.072021,313.752228 922.779358,313.752228 929.065552,313.752228 
	C928.293884,311.251587 927.760742,309.031799 926.931030,306.929016 
	C924.644897,301.134796 922.234558,295.389526 919.341858,290.102509 
z"/>
<path fill="#3E3E3E" opacity="1.000000" stroke="none" 
	d="
M986.860962,273.287415 
	C992.360840,275.525818 997.455444,277.683929 1003.406311,280.204803 
	C1000.285828,284.476410 998.083191,287.491547 996.118652,290.180725 
	C991.186096,288.273743 986.777283,286.543121 982.343201,284.879913 
	C981.579041,284.593292 980.704956,284.466461 979.885864,284.482147 
	C976.048828,284.555603 971.482117,284.210480 970.462708,288.982819 
	C969.389771,294.005493 973.905701,294.642731 977.422302,295.625275 
	C981.906738,296.878235 986.459900,297.911285 990.886414,299.339874 
	C999.439331,302.100250 1003.757568,307.678131 1003.826294,315.635315 
	C1003.901001,324.280182 999.665039,330.441681 991.141724,333.272614 
	C979.887634,337.010559 969.225769,335.363739 959.041260,329.336731 
	C954.935486,326.906982 954.190369,324.394287 957.395874,320.790131 
	C958.816162,319.193146 960.118591,317.491425 960.772095,316.694214 
	C967.031799,319.000427 972.668579,321.102966 978.331482,323.132599 
	C979.088867,323.404022 979.992493,323.441284 980.804504,323.357147 
	C984.851746,322.937897 989.487976,322.492065 990.133240,317.608124 
	C990.791016,312.630035 986.141418,311.751343 982.521118,310.661774 
	C977.908325,309.273438 973.134827,308.374420 968.598755,306.784790 
	C960.044189,303.786896 955.815674,297.673126 956.482605,289.960999 
	C957.184448,281.845245 962.811768,275.185059 971.118958,273.805573 
	C976.126221,272.974091 981.336609,273.365356 986.860962,273.287415 
z"/>
<path fill="#3E3E3E" opacity="1.000000" stroke="none" 
	d="
M809.678528,363.232666 
	C807.601868,365.991241 805.704224,368.477600 804.055359,370.638062 
	C799.437744,368.733337 795.434570,366.729675 791.209106,365.474335 
	C788.763428,364.747742 785.746521,364.580383 783.382507,365.360626 
	C781.378479,366.022034 779.054626,368.182892 778.572693,370.106323 
	C778.259583,371.355835 780.679504,374.234070 782.428894,374.878326 
	C787.536438,376.759186 792.980591,377.699463 798.186523,379.344879 
	C809.423096,382.896332 814.238953,391.368011 811.138855,402.024872 
	C808.934082,409.603912 803.165466,413.477234 795.908020,414.759979 
	C786.016357,416.508392 776.327820,415.718872 767.583252,409.953766 
	C762.525024,406.619049 762.347900,406.009003 765.754272,401.089783 
	C766.876526,399.469147 768.132751,397.941223 769.581726,396.037018 
	C771.982727,397.644165 774.068787,399.199646 776.301880,400.503357 
	C781.545593,403.564758 787.283752,404.808685 793.073975,402.960022 
	C795.169434,402.291046 797.865112,399.649475 797.987122,397.759583 
	C798.103943,395.951050 795.610413,393.076569 793.600952,392.212097 
	C789.214294,390.324921 784.394592,389.456909 779.773071,388.100342 
	C768.957581,384.925507 764.396484,379.760040 764.677917,371.091248 
	C764.972778,362.005402 770.950867,355.497498 781.465698,353.614197 
	C790.437439,352.007233 799.094360,353.340607 806.783936,358.548309 
	C808.169128,359.486481 808.851013,361.463226 809.678528,363.232666 
z"/>
<path fill="#3E3E3E" opacity="1.000000" stroke="none" 
	d="
M765.966553,310.310242 
	C762.563599,310.039154 761.082092,311.149139 761.222473,314.264282 
	C761.363159,317.386963 761.253418,320.520905 761.253418,324.269623 
	C769.680115,324.269623 777.643188,324.458405 785.590698,324.188385 
	C789.446838,324.057343 790.610291,325.455719 790.323914,329.100433 
	C790.077332,332.239410 790.969421,335.475281 785.774658,335.340607 
	C774.617920,335.051453 763.446655,335.337555 752.288269,335.083588 
	C750.961670,335.053467 748.554932,333.140686 748.541931,332.077393 
	C748.311462,313.268768 748.374939,294.456573 748.374939,275.221619 
	C762.289795,275.221619 775.834045,275.221619 790.255432,275.221619 
	C790.255432,277.459442 790.103943,279.717163 790.292725,281.946106 
	C790.544128,284.914032 789.141113,285.681824 786.453613,285.635101 
	C779.623840,285.516327 772.788940,285.664978 765.960205,285.516663 
	C762.573242,285.443115 761.176575,286.665833 761.250366,290.180023 
	C761.482300,301.230530 760.161926,299.391235 770.484436,299.524994 
	C775.815430,299.594086 781.147522,299.577148 786.479065,299.614532 
	C786.801025,299.616760 787.122009,299.756134 787.820374,299.920349 
	C787.820374,303.059357 787.820374,306.290009 787.820374,310.308258 
	C780.652161,310.308258 773.563049,310.308258 765.966553,310.310242 
z"/>
<path fill="#3E3E3E" opacity="1.000000" stroke="none" 
	d="
M535.994873,274.816650 
	C540.821960,274.816620 545.161926,275.011871 549.475647,274.759155 
	C553.497009,274.523560 553.282898,277.073395 553.055420,279.620453 
	C552.834778,282.091156 554.542542,285.713531 549.578003,285.627808 
	C542.587708,285.507080 535.592529,285.671082 528.602478,285.544525 
	C525.578308,285.489777 524.099365,286.267487 524.015869,289.704315 
	C523.776855,299.538940 523.636963,299.535339 533.426147,299.534576 
	C539.063721,299.534119 544.701233,299.534485 550.707397,299.534485 
	C550.707397,303.168060 550.707397,306.388336 550.707397,310.303894 
	C543.677734,310.303894 536.722839,310.563751 529.799255,310.210999 
	C525.304626,309.981995 523.760132,311.578247 524.237244,315.911072 
	C524.507751,318.367737 524.286011,320.878571 524.286011,324.256500 
	C526.975159,324.256500 529.372925,324.256470 531.770630,324.256531 
	C536.931580,324.256622 542.092529,324.252075 547.253479,324.258179 
	C552.285583,324.264130 555.288757,329.520691 552.576050,333.889618 
	C552.058044,334.723846 550.351990,335.187378 549.188721,335.197144 
	C537.868713,335.292603 526.547607,335.234436 515.226929,335.271545 
	C512.783997,335.279541 510.933411,334.866455 510.955017,331.814453 
	C511.085876,313.338684 511.173279,294.862610 511.294342,276.386749 
	C511.296356,276.081879 511.539093,275.778595 511.951843,274.816467 
	C519.602478,274.816467 527.549438,274.816467 535.994873,274.816650 
z"/>
<path fill="#3E3E3E" opacity="1.000000" stroke="none" 
	d="
M679.999268,355.082336 
	C684.832031,355.080566 689.190430,355.371674 693.491333,354.999664 
	C698.079346,354.602814 700.094910,356.128387 699.415161,360.821289 
	C699.204590,362.275116 699.225220,363.762451 699.107910,365.787476 
	C689.811157,365.787476 680.737000,365.787476 671.226807,365.787476 
	C671.226807,370.556000 671.226807,374.756989 671.226807,379.598816 
	C679.676514,379.598816 688.061096,379.598816 696.796875,379.598816 
	C696.796875,383.465179 696.796875,386.705475 696.796875,390.557739 
	C688.381836,390.557739 679.976318,390.557739 671.183838,390.557739 
	C671.183838,395.514374 671.183838,399.868195 671.183838,404.798035 
	C680.650330,404.798035 689.743896,404.798035 699.097412,404.798035 
	C699.097412,408.455688 699.097412,411.540192 699.097412,415.001495 
	C685.482117,415.001495 672.050232,415.001495 658.138550,415.001495 
	C658.138550,395.415253 658.138550,375.717224 658.138550,355.083405 
	C665.290283,355.083405 672.394897,355.083405 679.999268,355.082336 
z"/>
<path fill="#3D3D3D" opacity="1.000000" stroke="none" 
	d="
M632.582886,373.347748 
	C634.372192,368.450195 636.220703,363.977509 637.584595,359.361664 
	C638.503174,356.253021 640.093018,355.021484 643.311218,355.250214 
	C646.581360,355.482666 649.880981,355.301544 654.077576,355.301544 
	C651.819519,361.312012 649.884583,366.516998 647.910278,371.707001 
	C642.889648,384.905853 637.752197,398.061615 632.891724,411.319061 
	C631.713440,414.532959 630.002075,415.478424 626.679443,415.458099 
	C614.983032,415.386383 614.932617,415.533447 610.732483,404.620483 
	C605.121460,390.041443 599.590454,375.431549 594.045410,360.827179 
	C593.471863,359.316711 593.036011,357.753937 592.252197,355.340790 
	C597.001465,355.340790 601.142273,354.921143 605.111633,355.562500 
	C606.551392,355.795135 608.055969,358.389099 608.722229,360.202728 
	C613.357971,372.822266 617.780945,385.520020 623.607300,398.582367 
	C626.550171,390.292145 629.492981,382.001923 632.582886,373.347748 
z"/>
<path fill="#3E3E3E" opacity="1.000000" stroke="none" 
	d="
M930.336731,408.753937 
	C930.336487,411.029938 930.336487,412.840912 930.336487,415.018188 
	C925.310608,415.018188 920.606140,415.018188 915.426758,415.018188 
	C915.426758,408.675537 915.747803,402.526367 915.298218,396.434052 
	C915.055115,393.139404 914.122009,389.560120 912.419189,386.768738 
	C906.194458,376.565460 899.515320,366.639404 892.954041,356.526642 
	C901.630859,353.177307 907.172913,354.985199 911.502014,362.102112 
	C914.598328,367.192291 917.829041,372.200684 921.542603,378.109192 
	C923.221741,375.688477 924.528198,373.929993 925.700989,372.086426 
	C927.665405,368.998260 929.572144,365.872406 931.454102,362.733032 
	C936.250366,354.732208 940.047791,353.352814 950.499084,356.284393 
	C947.580322,361.389832 944.741577,366.377228 941.878662,371.350647 
	C940.965576,372.936859 940.119324,374.585449 939.019592,376.036560 
	C931.753662,385.623535 928.761414,396.334717 930.336731,408.753937 
z"/>
<path fill="#3F3F3F" opacity="1.000000" stroke="none" 
	d="
M870.593140,374.063965 
	C870.592834,387.984955 870.592834,401.410034 870.592834,415.124756 
	C866.109497,415.124756 862.187927,415.124756 857.559326,415.124756 
	C857.559326,411.007507 857.559570,406.915070 857.559265,402.822601 
	C857.558533,392.674438 857.443604,382.524292 857.619568,372.379211 
	C857.679688,368.911591 856.551025,367.614258 853.045654,367.802704 
	C848.589539,368.042206 844.110779,367.860657 839.253296,367.860657 
	C839.253296,363.699219 839.253296,359.971497 839.253296,355.626038 
	C840.873901,355.514465 842.613220,355.295227 844.353149,355.290771 
	C857.163025,355.258026 869.973022,355.264404 882.783020,355.266357 
	C889.230347,355.267334 889.230652,355.274780 889.235474,361.795776 
	C889.236816,363.590271 889.235718,365.384796 889.235718,367.918732 
	C882.856323,367.918732 876.971375,367.918732 870.593506,367.918732 
	C870.593506,370.305908 870.593506,371.936981 870.593140,374.063965 
z"/>
<path fill="#404040" opacity="1.000000" stroke="none" 
	d="
M576.022705,355.685181 
	C588.153625,354.821930 588.131104,354.821899 588.114868,366.584930 
	C588.092834,382.562073 588.109436,398.539246 588.109436,414.957977 
	C583.729736,414.957977 579.683533,414.957977 575.518250,414.957977 
	C575.347473,414.565918 574.989441,414.126770 574.988464,413.686829 
	C574.947510,395.189667 574.929626,376.692413 574.957031,358.195251 
	C574.958130,357.430664 575.420166,356.666779 576.022705,355.685181 
z"/>
<path fill="#404040" opacity="1.000000" stroke="none" 
	d="
M818.293396,371.004364 
	C818.287170,368.341400 818.280518,366.177155 818.278564,364.012939 
	C818.269836,354.582977 818.983521,353.896973 828.437439,355.390533 
	C829.547668,355.565826 831.253174,357.300934 831.262512,358.325897 
	C831.433533,377.104553 831.387573,395.885132 831.387573,415.040710 
	C826.939148,415.040710 822.893433,415.040710 818.295105,415.040710 
	C818.295105,400.377625 818.295105,385.940369 818.293396,371.004364 
z"/>
<path fill="#ABAA45" opacity="1.000000" stroke="none" 
	d="
M373.404663,415.372314 
	C373.104645,376.134430 373.160370,337.078644 373.191406,298.022858 
	C373.192108,297.109833 372.915009,296.196625 372.673309,294.700500 
	C370.728333,296.426636 369.291504,297.701752 367.487000,298.712952 
	C368.093964,297.141083 368.892365,295.626312 370.102753,294.595093 
	C370.963837,293.861420 372.477844,293.336334 373.512695,293.565582 
	C374.173431,293.712006 374.684845,295.363159 374.910553,296.415314 
	C375.149872,297.530731 374.975494,298.735718 374.975525,299.901581 
	C374.976471,335.378235 374.951202,370.854889 374.995544,406.331482 
	C375.006134,414.811890 373.663025,413.932251 383.152527,414.248627 
	C387.807922,414.403870 389.136658,412.737549 389.121277,408.180664 
	C388.976776,365.376007 389.074158,322.570526 388.900635,279.766083 
	C388.892548,277.769196 386.982758,275.780029 385.958649,273.787262 
	C391.369812,271.924591 390.767395,275.746155 390.767731,278.917236 
	C390.772339,320.182526 390.762390,361.447784 390.762054,402.713074 
	C390.762024,406.539825 390.802338,410.366608 390.857605,414.668823 
	C385.179993,415.280975 379.468689,415.417725 373.404663,415.372314 
z"/>
<path fill="#ABAA45" opacity="1.000000" stroke="none" 
	d="
M224.636597,331.603455 
	C225.067154,331.114288 225.402588,330.386078 225.942337,330.171356 
	C236.069748,326.142059 238.629471,318.399139 237.395264,308.264191 
	C236.757782,303.029480 237.407623,297.648224 237.123154,292.352142 
	C237.062088,291.215485 235.480164,289.210388 234.597305,289.209564 
	C219.691681,289.195557 204.785828,289.435669 189.488251,289.699554 
	C188.941681,284.409546 188.786896,279.039459 188.900238,273.374329 
	C210.811371,273.132202 232.454926,273.125366 254.096512,273.327179 
	C256.352814,273.348236 258.597626,274.605408 260.477783,275.607635 
	C258.671661,275.582886 257.236389,274.944763 255.799286,274.940582 
	C235.021713,274.880371 214.243835,274.891388 193.466232,274.949707 
	C192.392975,274.952698 190.428726,275.450958 190.390274,275.860504 
	C190.083344,279.129517 189.810730,282.487000 190.335297,285.684875 
	C190.456406,286.423157 193.685608,287.035095 195.490631,287.051941 
	C208.122437,287.169739 220.756180,287.165588 233.388596,287.087189 
	C237.208694,287.063507 239.208221,288.181793 239.066025,292.529633 
	C238.802002,300.600861 239.195206,308.693115 238.951614,316.765625 
	C238.722900,324.345978 232.784927,330.256714 224.636597,331.603455 
z"/>
<path fill="#508070" opacity="1.000000" stroke="none" 
	d="
M212.029633,415.215271 
	C210.630829,413.626099 209.581482,411.896027 208.341171,409.851105 
	C207.182297,411.643585 205.922638,413.591980 204.160095,416.318146 
	C202.615753,413.652313 201.433243,411.611053 199.523163,408.313873 
	C199.067490,410.738281 198.952789,412.047363 198.547440,413.259186 
	C198.277725,414.065491 197.592987,414.732941 197.093994,415.462524 
	C196.492950,414.662170 195.410843,413.884003 195.372696,413.057648 
	C195.190277,409.106628 195.290894,405.142548 195.290894,401.183350 
	C188.348297,401.264099 188.467438,401.267517 188.268661,408.216980 
	C188.199081,410.650146 187.384338,413.061951 186.909851,415.483521 
	C186.291275,413.054718 185.471634,410.654938 185.115952,408.188232 
	C184.815842,406.106995 185.054138,403.948151 185.054138,401.674377 
	C182.886642,401.317078 181.167404,401.033661 179.448181,400.750244 
	C179.296768,400.278748 179.145370,399.807251 178.993973,399.335754 
	C180.309097,398.839020 181.637756,397.885315 182.937012,397.923798 
	C188.889633,398.100311 195.341583,396.407593 200.360977,400.915833 
	C202.034485,402.418854 202.535904,405.226837 204.076447,408.511383 
	C205.662704,405.319580 206.695892,402.824402 208.112885,400.570496 
	C208.789764,399.493774 210.195084,398.875000 211.270493,398.048828 
	C211.833328,399.126373 212.875305,400.203644 212.875824,401.281464 
	C212.878021,405.879028 212.572403,410.476746 212.029633,415.215271 
z"/>
<path fill="#ABAA45" opacity="1.000000" stroke="none" 
	d="
M254.331100,413.841553 
	C254.466278,414.046783 254.601471,414.251984 254.856079,414.805664 
	C249.223083,415.268616 243.470657,415.383148 237.362198,415.312378 
	C237.006180,391.519897 237.006180,367.912750 237.006180,344.797119 
	C226.103348,348.104126 215.332565,351.371094 204.458633,354.135986 
	C213.217667,350.345490 222.258118,347.459076 230.882736,343.634857 
	C237.197281,340.834839 238.942627,341.387451 238.946442,348.269135 
	C238.957764,368.720490 239.014923,389.172363 238.873520,409.622772 
	C238.849609,413.079041 239.836075,414.489777 243.380280,414.195038 
	C247.015213,413.892761 250.679596,413.944641 254.331100,413.841553 
z"/>
<path fill="#ABAA45" opacity="1.000000" stroke="none" 
	d="
M241.000580,225.990585 
	C238.411575,223.736984 236.107162,221.411469 234.038498,218.676849 
	C236.754913,219.765137 239.235596,221.262527 242.209534,223.057663 
	C244.241745,219.966049 246.103806,217.133286 248.307068,213.781448 
	C244.708435,211.061935 241.326385,208.556351 237.998322,205.980988 
	C230.235886,199.974152 221.132904,196.278610 211.885620,194.289902 
	C201.205658,191.993073 190.094070,190.516434 179.014572,193.583054 
	C174.691055,194.779724 170.079834,194.936951 165.599655,195.567612 
	C172.044662,193.820816 178.399261,191.115692 184.950760,190.497589 
	C209.727509,188.160019 231.190811,196.288788 249.885864,212.960922 
	C247.145828,217.473984 244.215500,221.696335 241.000580,225.990585 
z"/>
<path fill="#8A8A8A" opacity="1.000000" stroke="none" 
	d="
M941.713806,404.103577 
	C943.762451,396.668915 948.837158,392.673340 954.561523,393.987976 
	C960.745483,395.408173 964.097229,399.688995 963.741577,405.712677 
	C963.433716,410.926514 959.446716,415.311249 954.528381,415.845001 
	C947.834106,416.571533 943.971252,413.746155 942.195557,406.224121 
	C942.178650,405.222107 941.946228,404.662842 941.713806,404.103577 
M947.017151,399.218140 
	C943.617859,403.152161 943.900208,407.068329 947.463440,411.611877 
	C949.169006,412.147003 951.220459,413.552002 952.509399,413.039459 
	C955.349487,411.909882 959.063049,410.341553 960.062744,407.961914 
	C961.058716,405.591461 960.061829,401.217712 958.270569,399.212494 
	C956.845642,397.617371 952.906677,398.267944 949.494995,398.218414 
	C948.905701,398.499573 948.316406,398.780731 947.017151,399.218140 
z"/>
<path fill="#EDEDED" opacity="1.000000" stroke="none" 
	d="
M941.524170,404.239563 
	C941.946228,404.662842 942.178650,405.222107 942.094360,405.852478 
	C941.629944,405.407532 941.482300,404.891510 941.524170,404.239563 
z"/>
<path fill="#F3C538" opacity="1.000000" stroke="none" 
	d="
M165.325806,195.589142 
	C170.079834,194.936951 174.691055,194.779724 179.014572,193.583054 
	C190.094070,190.516434 201.205658,191.993073 211.885620,194.289902 
	C221.132904,196.278610 230.235886,199.974152 237.998322,205.980988 
	C241.326385,208.556351 244.708435,211.061935 248.307068,213.781448 
	C246.103806,217.133286 244.241745,219.966049 242.209534,223.057663 
	C239.235596,221.262527 236.754913,219.765137 233.916168,218.365417 
	C233.212372,218.341583 232.866653,218.220047 232.246613,217.591461 
	C230.602448,216.450729 229.232605,215.817032 227.862747,215.183334 
	C227.862747,215.183334 227.873642,215.023819 227.863708,214.737946 
	C224.344467,211.194366 220.343933,209.267761 215.485352,208.519516 
	C208.241898,207.403961 201.163055,205.079605 193.902252,204.254288 
	C185.946640,203.349991 178.480637,206.223343 170.918503,208.661209 
	C160.429367,212.042664 151.281158,217.345627 144.300156,225.673172 
	C140.511276,230.192856 138.195587,235.947510 135.215393,241.145111 
	C135.215393,241.145111 135.033173,241.587524 134.555206,241.840576 
	C129.772827,249.461670 125.479492,256.832642 127.718269,265.945129 
	C127.767403,271.025452 127.816528,276.105804 127.568016,281.884369 
	C128.083664,286.517395 128.220993,290.761230 129.849426,294.323364 
	C133.354675,301.990875 137.588562,309.328857 141.654800,316.729950 
	C142.001755,317.361511 143.323334,317.457581 144.192154,317.802429 
	C144.192154,317.802429 144.011063,318.000366 144.041229,318.273560 
	C146.106552,320.305817 148.141678,322.064880 150.176804,323.823944 
	C150.176804,323.823944 150.000610,323.998779 150.060211,324.263916 
	C160.233185,334.467377 172.513840,339.643372 186.509216,340.893311 
	C195.883514,341.730560 205.132675,340.607697 214.035187,337.712585 
	C217.300323,336.650757 220.096558,334.146973 223.106689,332.300995 
	C223.433136,332.112488 223.759583,331.923981 224.361298,331.669464 
	C232.784927,330.256714 238.722900,324.345978 238.951614,316.765625 
	C239.195206,308.693115 238.802002,300.600861 239.066025,292.529633 
	C239.208221,288.181793 237.208694,287.063507 233.388596,287.087189 
	C220.756180,287.165588 208.122437,287.169739 195.490631,287.051941 
	C193.685608,287.035095 190.456406,286.423157 190.335297,285.684875 
	C189.810730,282.487000 190.083344,279.129517 190.390274,275.860504 
	C190.428726,275.450958 192.392975,274.952698 193.466232,274.949707 
	C214.243835,274.891388 235.021713,274.880371 255.799286,274.940582 
	C257.236389,274.944763 258.671661,275.582886 260.519379,275.982727 
	C260.930969,276.039215 260.975006,276.032593 260.977966,276.381104 
	C261.926270,277.513184 262.871613,278.296692 263.816986,279.080231 
	C263.816986,279.080231 263.921539,279.076019 263.922241,279.484924 
	C265.776703,282.296753 267.467560,284.849274 269.513000,287.076141 
	C277.339539,295.596863 285.241730,304.049469 293.225891,312.422424 
	C294.241669,313.487671 295.908691,313.931946 297.274048,314.663879 
	C297.274048,314.663879 297.251068,314.746613 297.218262,315.098999 
	C298.190186,316.226746 299.194946,317.002075 300.199677,317.777435 
	C300.199677,317.777435 300.041473,317.953522 300.079163,318.235382 
	C303.369537,321.705383 306.622253,324.893524 309.874939,328.081665 
	C309.874939,328.081665 309.966309,328.034515 309.969788,328.402679 
	C310.902191,329.535858 311.831146,330.300903 312.760101,331.065918 
	C313.281128,331.171326 313.802124,331.276764 314.944183,331.569427 
	C321.211273,328.307007 325.941620,324.047241 328.137482,317.545319 
	C328.137482,317.545319 328.443207,317.154266 328.993591,317.028992 
	C329.970795,316.217346 330.397644,315.530975 330.824463,314.844604 
	C330.824463,314.844604 330.982086,314.975037 331.261139,314.920837 
	C331.966583,314.173981 332.392944,313.481323 332.819305,312.788635 
	C333.132141,312.325531 333.444946,311.862396 334.341614,311.209534 
	C336.176056,309.552368 337.426666,308.084900 338.677277,306.617432 
	C338.793365,306.334198 338.964233,306.089142 339.730347,305.828735 
	C343.736786,301.759399 347.202759,297.743622 350.668732,293.727844 
	C350.668732,293.727844 350.777496,293.790100 351.111633,293.795044 
	C351.829193,293.098389 352.212646,292.396759 352.596100,291.695129 
	C352.596100,291.695129 352.714905,291.779846 353.037354,291.722534 
	C359.241821,285.728943 365.123871,279.792664 371.005920,273.856384 
	C375.681519,273.811737 380.357086,273.767090 385.495667,273.754852 
	C386.982758,275.780029 388.892548,277.769196 388.900635,279.766083 
	C389.074158,322.570526 388.976776,365.376007 389.121277,408.180664 
	C389.136658,412.737549 387.807922,414.403870 383.152527,414.248627 
	C373.663025,413.932251 375.006134,414.811890 374.995544,406.331482 
	C374.951202,370.854889 374.976471,335.378235 374.975525,299.901581 
	C374.975494,298.735718 375.149872,297.530731 374.910553,296.415314 
	C374.684845,295.363159 374.173431,293.712006 373.512695,293.565582 
	C372.477844,293.336334 370.963837,293.861420 370.102753,294.595093 
	C368.892365,295.626312 368.093964,297.141083 367.157867,298.807617 
	C367.196381,299.166199 367.177917,299.156616 366.819641,299.141602 
	C364.764343,301.180725 363.067291,303.234894 361.370270,305.289032 
	C361.370270,305.289032 361.304108,305.300110 360.942627,305.248199 
	C355.056366,310.702728 349.365356,316.055115 344.068298,321.772522 
	C340.806488,325.293182 338.146088,329.371002 335.215698,333.198669 
	C335.215668,333.198639 334.999207,333.025452 334.739044,333.079346 
	C333.750153,334.171051 333.021423,335.208862 332.292694,336.246704 
	C332.292694,336.246704 332.125275,336.138153 331.821777,336.150665 
	C330.832886,337.217834 330.147461,338.272461 329.462006,339.327087 
	C329.462006,339.327087 329.380707,339.373077 328.996582,339.329956 
	C328.180908,340.002747 327.749390,340.718628 327.317871,341.434509 
	C327.152008,341.758057 326.986176,342.081635 326.300537,342.629639 
	C324.582275,343.706726 323.266235,344.434265 322.204346,345.432251 
	C315.290741,351.929413 315.309296,351.947571 307.369781,348.118866 
	C307.238647,348.055634 307.041748,348.128906 306.875519,348.138489 
	C306.875519,348.138489 306.989349,348.008118 306.944580,347.708435 
	C304.165771,344.733734 301.431671,342.058777 298.697601,339.383789 
	C298.697601,339.383789 298.684906,339.313873 298.741730,338.944824 
	C297.803802,337.788513 296.809082,337.001282 295.814331,336.214050 
	C295.814331,336.214050 295.937714,336.067444 295.924133,335.759338 
	C292.638458,332.280151 289.366333,329.109070 286.094208,325.938019 
	C286.094208,325.938019 286.008575,325.983154 286.013733,325.595154 
	C281.354492,319.728180 276.717133,314.225464 271.976990,308.812714 
	C271.573730,308.352234 270.485107,308.492004 269.714874,308.352905 
	C269.714874,308.352905 269.773987,308.280182 269.722412,307.988586 
	C269.348175,307.540680 269.025543,307.384369 268.702911,307.228058 
	C267.846893,306.390015 266.990875,305.551971 266.015106,304.093262 
	C263.254272,300.992798 260.613190,298.513000 257.972107,296.033234 
	C257.972107,296.033234 257.737915,295.789246 257.743378,295.249512 
	C256.752136,294.270477 255.755417,293.831207 254.758698,293.391937 
	C254.653503,294.914154 254.548294,296.436371 254.443085,297.958588 
	C254.471161,336.287537 254.499252,374.616516 254.429230,413.393494 
	C250.679596,413.944641 247.015213,413.892761 243.380280,414.195038 
	C239.836075,414.489777 238.849609,413.079041 238.873520,409.622772 
	C239.014923,389.172363 238.957764,368.720490 238.946442,348.269135 
	C238.942627,341.387451 237.197281,340.834839 230.882736,343.634857 
	C222.258118,347.459076 213.217667,350.345490 204.146912,353.949036 
	C202.513763,354.444855 201.089188,354.625519 198.993652,354.516541 
	C193.921921,354.347626 189.521133,354.468414 185.120361,354.589233 
	C184.362289,354.570496 183.604202,354.551758 182.309357,354.126953 
	C177.868683,353.050201 173.964813,352.379517 170.060928,351.708862 
	C169.622955,351.663391 169.184998,351.617920 168.309464,351.151245 
	C164.374603,348.942596 161.009460,346.803741 157.356628,345.429871 
	C143.282867,340.136444 134.438660,328.704346 126.011665,317.467346 
	C118.770859,307.812134 114.232368,296.360779 113.353699,283.908051 
	C112.360939,269.838318 112.454239,255.934265 118.389801,242.683151 
	C120.112511,238.837234 121.272942,234.739441 122.691132,230.757111 
	C122.691132,230.757111 122.822044,230.800125 123.132011,230.793823 
	C129.352356,224.263168 135.294037,217.766602 141.136520,211.181992 
	C141.935989,210.280975 142.241196,208.941391 142.775253,207.804855 
	C142.775253,207.804855 142.906311,207.925735 143.233215,207.923035 
	C149.993225,204.446548 156.435944,200.990173 162.841354,197.466003 
	C163.355789,197.182983 163.613419,196.433182 163.990387,195.900284 
	C164.344238,195.803757 164.698090,195.707214 165.325806,195.589142 
z"/>
<path fill="#ABAA45" opacity="1.000000" stroke="none" 
	d="
M122.378235,230.872086 
	C121.272942,234.739441 120.112511,238.837234 118.389801,242.683151 
	C112.454239,255.934265 112.360939,269.838318 113.353699,283.908051 
	C114.232368,296.360779 118.770859,307.812134 126.011665,317.467346 
	C134.438660,328.704346 143.282867,340.136444 157.356628,345.429871 
	C161.009460,346.803741 164.374603,348.942596 168.009979,351.008423 
	C161.122345,348.186218 153.343521,346.148743 147.202957,341.798645 
	C122.312180,324.165802 109.359009,299.876434 110.516090,269.106201 
	C111.023483,255.612961 114.365776,242.525085 122.378235,230.872086 
z"/>
<path fill="#ABAA45" opacity="1.000000" stroke="none" 
	d="
M142.439331,207.856400 
	C142.241196,208.941391 141.935989,210.280975 141.136520,211.181992 
	C135.294037,217.766602 129.352356,224.263168 123.086372,230.742218 
	C126.823830,221.090561 133.967590,214.077591 142.439331,207.856400 
z"/>
<path fill="#ABAA45" opacity="1.000000" stroke="none" 
	d="
M163.748230,195.724792 
	C163.613419,196.433182 163.355789,197.182983 162.841354,197.466003 
	C156.435944,200.990173 149.993225,204.446548 143.186890,207.846863 
	C147.310638,204.657394 151.713318,201.390732 156.346268,198.492111 
	C158.502533,197.143036 161.105545,196.508026 163.748230,195.724792 
z"/>
<path fill="#ABAA45" opacity="1.000000" stroke="none" 
	d="
M185.382034,354.897278 
	C189.521133,354.468414 193.921921,354.347626 198.635040,354.482697 
	C194.512833,354.894165 190.078278,355.049774 185.382034,354.897278 
z"/>
<path fill="#ABAA45" opacity="1.000000" stroke="none" 
	d="
M170.274384,352.011047 
	C173.964813,352.379517 177.868683,353.050201 181.949051,354.002228 
	C178.246307,353.626831 174.367065,352.970062 170.274384,352.011047 
z"/>
<path fill="#ABAA45" opacity="1.000000" stroke="none" 
	d="
M297.199158,314.340088 
	C295.908691,313.931946 294.241669,313.487671 293.225891,312.422424 
	C285.241730,304.049469 277.339539,295.596863 269.513000,287.076141 
	C267.467560,284.849274 265.776703,282.296753 263.919403,279.537170 
	C266.996674,282.112946 270.224976,284.906982 273.130127,288.004150 
	C281.200073,296.607391 289.135620,305.336731 297.199158,314.340088 
z"/>
<path fill="#ABAA45" opacity="1.000000" stroke="none" 
	d="
M370.781067,273.663696 
	C365.123871,279.792664 359.241821,285.728943 353.008423,291.655548 
	C358.623444,285.587585 364.589813,279.529297 370.781067,273.663696 
z"/>
<path fill="#ABAA45" opacity="1.000000" stroke="none" 
	d="
M327.819275,317.562561 
	C325.941620,324.047241 321.211273,328.307007 315.343750,331.566467 
	C319.248535,326.777435 323.374786,322.178619 327.819275,317.562561 
z"/>
<path fill="#ABAA45" opacity="1.000000" stroke="none" 
	d="
M350.352173,293.815643 
	C347.202759,297.743622 343.736786,301.759399 339.913513,305.697357 
	C343.049316,301.714172 346.542450,297.808807 350.352173,293.815643 
z"/>
<path fill="#ABAA45" opacity="1.000000" stroke="none" 
	d="
M309.849304,327.746429 
	C306.622253,324.893524 303.369537,321.705383 300.170105,318.159668 
	C303.423462,321.005096 306.623566,324.208160 309.849304,327.746429 
z"/>
<path fill="#ABAA45" opacity="1.000000" stroke="none" 
	d="
M338.362488,306.720917 
	C337.426666,308.084900 336.176056,309.552368 334.586609,311.067108 
	C335.514435,309.684418 336.781067,308.254395 338.362488,306.720917 
z"/>
<path fill="#ABAA45" opacity="1.000000" stroke="none" 
	d="
M312.770813,330.740051 
	C311.831146,330.300903 310.902191,329.535858 309.945557,328.448029 
	C310.872467,328.888184 311.827026,329.651154 312.770813,330.740051 
z"/>
<path fill="#ABAA45" opacity="1.000000" stroke="none" 
	d="
M300.141357,317.467651 
	C299.194946,317.002075 298.190186,316.226746 297.260284,315.090179 
	C298.251099,315.538605 299.167053,316.348267 300.141357,317.467651 
z"/>
<path fill="#ABAA45" opacity="1.000000" stroke="none" 
	d="
M263.823181,278.749603 
	C262.871613,278.296692 261.926270,277.513184 260.967712,276.398987 
	C261.912781,276.851898 262.871094,277.635437 263.823181,278.749603 
z"/>
<path fill="#ABAA45" opacity="1.000000" stroke="none" 
	d="
M330.518524,314.895721 
	C330.397644,315.530975 329.970795,316.217346 329.200684,316.892212 
	C329.309113,316.236084 329.760834,315.591461 330.518524,314.895721 
z"/>
<path fill="#ABAA45" opacity="1.000000" stroke="none" 
	d="
M332.515625,312.854370 
	C332.392944,313.481323 331.966583,314.173981 331.191162,314.846191 
	C331.298737,314.190552 331.755341,313.555328 332.515625,312.854370 
z"/>
<path fill="#ABAA45" opacity="1.000000" stroke="none" 
	d="
M352.313538,291.768066 
	C352.212646,292.396759 351.829193,293.098389 351.086121,293.737793 
	C351.161346,293.064087 351.596161,292.452545 352.313538,291.768066 
z"/>
<path fill="#ABAA45" opacity="1.000000" stroke="none" 
	d="
M335.540710,333.119812 
	C338.146088,329.371002 340.806488,325.293182 344.068298,321.772522 
	C349.365356,316.055115 355.056366,310.702728 360.939331,305.281586 
	C352.820282,314.591583 344.343018,323.816284 335.540710,333.119812 
z"/>
<path fill="#ABAA45" opacity="1.000000" stroke="none" 
	d="
M306.950256,348.464325 
	C307.041748,348.128906 307.238647,348.055634 307.369781,348.118866 
	C315.309296,351.947571 315.290741,351.929413 322.204346,345.432251 
	C323.266235,344.434265 324.582275,343.706726 326.103699,342.819641 
	C322.579559,347.187714 318.732483,351.590210 314.302399,356.659851 
	C311.572327,353.707581 309.298645,351.248871 306.950256,348.464325 
z"/>
<path fill="#ABAA45" opacity="1.000000" stroke="none" 
	d="
M269.788330,308.677856 
	C270.485107,308.492004 271.573730,308.352234 271.976990,308.812714 
	C276.717133,314.225464 281.354492,319.728180 286.041840,325.555756 
	C280.663757,320.270508 275.262787,314.636658 269.788330,308.677856 
z"/>
<path fill="#ABAA45" opacity="1.000000" stroke="none" 
	d="
M286.106781,326.279602 
	C289.366333,329.109070 292.638458,332.280151 295.847412,335.816711 
	C292.562622,332.995209 289.341003,329.808228 286.106781,326.279602 
z"/>
<path fill="#ABAA45" opacity="1.000000" stroke="none" 
	d="
M298.779785,339.707733 
	C301.431671,342.058777 304.165771,344.733734 306.881012,347.767181 
	C304.195435,345.427643 301.528687,342.729675 298.779785,339.707733 
z"/>
<path fill="#ABAA45" opacity="1.000000" stroke="none" 
	d="
M258.006042,296.370148 
	C260.613190,298.513000 263.254272,300.992798 265.862671,303.834259 
	C263.233307,301.699646 260.636658,299.203369 258.006042,296.370148 
z"/>
<path fill="#ABAA45" opacity="1.000000" stroke="none" 
	d="
M361.680878,305.195679 
	C363.067291,303.234894 364.764343,301.180725 366.818726,299.151367 
	C365.447845,301.151520 363.719666,303.126923 361.680878,305.195679 
z"/>
<path fill="#ABAA45" opacity="1.000000" stroke="none" 
	d="
M254.610992,297.612488 
	C254.548294,296.436371 254.653503,294.914154 254.758698,293.391937 
	C255.755417,293.831207 256.752136,294.270477 257.683289,295.091431 
	C256.671417,296.070892 255.725159,296.668671 254.610992,297.612488 
z"/>
<path fill="#ABAA45" opacity="1.000000" stroke="none" 
	d="
M332.599915,336.167786 
	C333.021423,335.208862 333.750153,334.171051 334.842224,333.172363 
	C334.439423,334.170624 333.673279,335.129730 332.599915,336.167786 
z"/>
<path fill="#ABAA45" opacity="1.000000" stroke="none" 
	d="
M329.753418,339.229919 
	C330.147461,338.272461 330.832886,337.217834 331.886536,336.226562 
	C331.518127,337.237549 330.781494,338.185150 329.753418,339.229919 
z"/>
<path fill="#ABAA45" opacity="1.000000" stroke="none" 
	d="
M295.864838,336.524231 
	C296.809082,337.001282 297.803802,337.788513 298.707672,338.934692 
	C297.716309,338.473907 296.815826,337.654144 295.864838,336.524231 
z"/>
<path fill="#ABAA45" opacity="1.000000" stroke="none" 
	d="
M327.606323,341.347168 
	C327.749390,340.718628 328.180908,340.002747 328.976562,339.372162 
	C328.858704,340.058258 328.376709,340.659058 327.606323,341.347168 
z"/>
<path fill="#ABAA45" opacity="1.000000" stroke="none" 
	d="
M268.770630,307.479004 
	C269.025543,307.384369 269.348175,307.540680 269.675598,307.986237 
	C269.399719,308.093628 269.119049,307.911774 268.770630,307.479004 
z"/>
<path fill="#ABAA45" opacity="1.000000" stroke="none" 
	d="
M135.528778,241.046387 
	C138.195587,235.947510 140.511276,230.192856 144.300156,225.673172 
	C151.281158,217.345627 160.429367,212.042664 170.918503,208.661209 
	C178.480637,206.223343 185.946640,203.349991 193.902252,204.254288 
	C201.163055,205.079605 208.241898,207.403961 215.485352,208.519516 
	C220.343933,209.267761 224.344467,211.194366 227.841522,214.814850 
	C224.018143,213.589035 220.276840,211.799973 216.384750,210.443649 
	C186.395096,199.992798 153.938675,209.286194 135.528778,241.046387 
z"/>
<path fill="#ABAA45" opacity="1.000000" stroke="none" 
	d="
M222.738983,332.267639 
	C220.096558,334.146973 217.300323,336.650757 214.035187,337.712585 
	C205.132675,340.607697 195.883514,341.730560 186.509216,340.893311 
	C172.513840,339.643372 160.233185,334.467377 150.148010,324.176880 
	C156.620682,327.443207 162.831009,331.588623 169.555481,334.577057 
	C186.689133,342.191467 203.750244,340.414734 220.521362,332.949402 
	C221.124588,332.680878 221.754044,332.471313 222.738983,332.267639 
z"/>
<path fill="#ABAA45" opacity="1.000000" stroke="none" 
	d="
M144.122940,317.467590 
	C143.323334,317.457581 142.001755,317.361511 141.654800,316.729950 
	C137.588562,309.328857 133.354675,301.990875 129.849426,294.323364 
	C128.220993,290.761230 128.083664,286.517395 127.531097,282.303802 
	C130.046371,288.694366 131.811890,295.585632 134.706009,301.964844 
	C137.140121,307.330139 140.887650,312.099548 144.122940,317.467590 
z"/>
<path fill="#ABAA45" opacity="1.000000" stroke="none" 
	d="
M128.009659,265.694336 
	C125.479492,256.832642 129.772827,249.461670 134.407150,242.028488 
	C132.591721,249.790085 130.446396,257.616821 128.009659,265.694336 
z"/>
<path fill="#ABAA45" opacity="1.000000" stroke="none" 
	d="
M150.120865,323.494202 
	C148.141678,322.064880 146.106552,320.305817 144.136078,318.178345 
	C146.155457,319.594727 148.110199,321.379608 150.120865,323.494202 
z"/>
<path fill="#ABAA45" opacity="1.000000" stroke="none" 
	d="
M228.018066,215.467804 
	C229.232605,215.817032 230.602448,216.450729 232.023499,217.426285 
	C230.774246,217.096191 229.473831,216.424240 228.018066,215.467804 
z"/>
<path fill="#F0F0F0" opacity="1.000000" stroke="none" 
	d="
M658.414795,299.486267 
	C652.064209,300.565277 646.016479,301.390106 639.612488,302.263550 
	C639.482788,299.293213 639.286987,297.826538 639.381470,296.378784 
	C639.613586,292.821808 639.509216,286.341583 640.368408,286.203827 
	C645.444763,285.390076 650.976562,285.185760 655.933594,286.440826 
	C661.746460,287.912506 662.600647,293.619324 658.414795,299.486267 
z"/>
<path fill="#F4F4F4" opacity="1.000000" stroke="none" 
	d="
M729.959106,381.989258 
	C727.203003,381.988464 724.918335,381.988464 721.906128,381.988464 
	C721.906128,377.075775 721.748108,372.660614 722.045227,368.276306 
	C722.101685,367.442719 723.914124,366.154694 724.994446,366.069794 
	C728.452271,365.798218 731.956238,365.836639 735.424866,366.045502 
	C740.440247,366.347473 743.713684,369.777161 743.561401,374.245453 
	C743.412231,378.624756 739.911926,381.762848 734.906555,381.962219 
	C733.416565,382.021576 731.922668,381.983459 729.959106,381.989258 
z"/>
<path fill="#F8F8F8" opacity="1.000000" stroke="none" 
	d="
M572.180786,298.754028 
	C575.696106,287.977081 583.663452,282.585663 592.305542,284.814911 
	C601.786926,287.260712 607.769165,297.495544 605.794434,307.892731 
	C603.912659,317.800659 595.444519,324.315277 586.205627,322.962646 
	C578.108887,321.777222 571.591919,313.434906 571.560913,304.104980 
	C571.555420,302.457184 571.882141,300.808228 572.180786,298.754028 
z"/>
<path fill="#F8F8F8" opacity="1.000000" stroke="none" 
	d="
M1055.061768,299.118286 
	C1057.017822,313.167145 1048.807861,323.906952 1037.086060,323.156677 
	C1028.691040,322.619324 1021.528748,314.546539 1020.988953,305.013153 
	C1020.414734,294.871948 1026.847534,286.146454 1036.138428,284.464294 
	C1044.228638,282.999512 1051.762939,288.711761 1055.061768,299.118286 
z"/>
<path fill="#EDEDED" opacity="1.000000" stroke="none" 
	d="
M919.607605,289.863708 
	C922.234558,295.389526 924.644897,301.134796 926.931030,306.929016 
	C927.760742,309.031799 928.293884,311.251587 929.065552,313.752228 
	C922.779358,313.752228 917.072021,313.752228 910.415039,313.752228 
	C913.539612,305.474304 916.440735,297.788391 919.607605,289.863708 
z"/>
<path fill="#D9D9D9" opacity="1.000000" stroke="none" 
	d="
M950.083862,397.921539 
	C952.906677,398.267944 956.845642,397.617371 958.270569,399.212494 
	C960.061829,401.217712 961.058716,405.591461 960.062744,407.961914 
	C959.063049,410.341553 955.349487,411.909882 952.509399,413.039459 
	C951.220459,413.552002 949.169006,412.147003 947.533875,411.285553 
	C947.781189,410.961365 947.958069,410.963501 948.505615,410.915466 
	C949.728455,409.509918 950.580566,408.154572 951.987427,405.916840 
	C952.970703,407.889465 953.679504,409.311523 954.687378,411.333649 
	C957.535767,404.101105 956.276367,399.925690 950.083862,397.921539 
z"/>
<path fill="#616161" opacity="1.000000" stroke="none" 
	d="
M949.789429,398.069977 
	C956.276367,399.925690 957.535767,404.101105 954.687378,411.333649 
	C953.679504,409.311523 952.970703,407.889465 951.987427,405.916840 
	C950.580566,408.154572 949.728455,409.509918 948.441956,410.461365 
	C947.914062,406.392273 947.820557,402.727081 947.727112,399.061890 
	C948.316406,398.780731 948.905701,398.499573 949.789429,398.069977 
z"/>
<path fill="#EDEDED" opacity="1.000000" stroke="none" 
	d="
M947.372131,399.140015 
	C947.820557,402.727081 947.914062,406.392273 948.071228,410.511536 
	C947.958069,410.963501 947.781189,410.961365 947.339233,410.964844 
	C943.900208,407.068329 943.617859,403.152161 947.372131,399.140015 
z"/>
</svg>